<?xml version="1.0" encoding="utf-8"?>
<!-- Generator: Adobe Illustrator 16.0.0, SVG Export Plug-In . SVG Version: 6.00 Build 0)  -->
<!DOCTYPE svg PUBLIC "-//W3C//DTD SVG 1.1//EN" "http://www.w3.org/Graphics/SVG/1.1/DTD/svg11.dtd">
<svg version="1.1" id="Layer_1" xmlns="http://www.w3.org/2000/svg" xmlns:xlink="http://www.w3.org/1999/xlink" x="0px" y="0px"
	 width="63.75px" height="65.268px" viewBox="0 0 63.75 65.268" enable-background="new 0 0 63.75 65.268" xml:space="preserve">
<g>
	<g opacity="0.1">
		<path d="M62.395,55.903c0,4.703-5.014,9.365-10.07,9.365l-40.889-0.851c-5.056,0-9.155-3.812-9.155-8.515l-0.915-35.19
			c0-4.702,5.015-8.514,10.07-8.514h40.889c5.057,0,9.154,3.812,9.154,8.514L62.395,55.903z"/>
	</g>
	<g>
		<path fill="#9CC54F" d="M12.832,56.551c-5.488,0-9.98-4.492-9.98-10.013L2.001,11.383c0-5.371,5.077-10.05,10.865-10.05h38.029
			c5.521,0,10.014,4.492,10.014,10.014l0.851,35.154c0,5.52-5.381,10.901-10.865,10.901L12.832,56.551z"/>
		<path fill="#1B6A76" d="M50.895,2.833c4.701,0,8.514,3.812,8.514,8.514l0.852,35.19c0,4.703-4.664,9.365-9.365,9.365
			l-38.029-0.852c-4.701,0-8.514-3.811-8.514-8.514L3.5,11.347c0-4.703,4.664-8.514,9.365-8.514H50.895 M50.895-0.167H12.866
			C6.279-0.167,0.5,5.213,0.5,11.347v0.036l0.001,0.037l0.851,35.157c0.021,6.318,5.159,11.455,11.478,11.474l37.997,0.851
			l0.034,0.001h0.034c6.356,0,12.365-6.009,12.365-12.365v-0.036l-0.001-0.037l-0.851-35.157C62.387,4.977,57.23-0.167,50.895-0.167
			L50.895-0.167z"/>
	</g>
	<path fill="#C3D361" d="M54.117,10.287c-0.277-1.148-1.504-1.845-2.666-2.27C46.75,6.301,41.439,6.891,36.604,8.23
		c-1.025,0.284-2.094,0.633-2.789,1.398s-0.824,2.075,0.006,2.709c0.334,0.255,0.764,0.365,1.182,0.462
		c4.609,1.075,9.4,1.458,14.139,1.13c1.195-0.083,2.432-0.225,3.457-0.81C53.623,12.534,54.383,11.389,54.117,10.287z"/>
	<g>
		<defs>
			<path id="SVGID_1_" d="M60.26,46.538c0,4.703-4.664,9.365-9.365,9.365l-38.029-0.852c-4.701,0-8.514-3.811-8.514-8.514
				L3.5,11.347c0-4.703,4.664-8.514,9.365-8.514h38.029c4.701,0,8.514,3.812,8.514,8.514L60.26,46.538z"/>
		</defs>
		<clipPath id="SVGID_2_">
			<use xlink:href="#SVGID_1_"  overflow="visible"/>
		</clipPath>
		<path clip-path="url(#SVGID_2_)" fill="#92B744" d="M3.5,11.347c0,0,5.037,17.808,10.997,23.343
			c5.96,5.533,12.771,6.598,22.561,6.598c9.791,0,23.201-6.811,23.201-6.811l1.49,21.426l-7.58,6.031H11.73L-5.51,51.292L3.5,11.347
			z"/>
	</g>
</g>
<g>
	<g>
		<path fill-rule="evenodd" clip-rule="evenodd" fill="#166976" d="M43.575,31.474V19.961c0-0.003,0.001-0.005,0.001-0.008
			c0-0.418-0.127-0.806-0.345-1.128c-0.362-0.538-0.978-0.891-1.674-0.891c-0.003,0-0.006,0-0.009,0l-11.513,0
			c-1.114,0-2.019,0.903-2.019,2.018s0.904,2.018,2.019,2.018h9.503v9.503c0,1.115,0.903,2.019,2.019,2.018
			C42.671,33.492,43.575,32.588,43.575,31.474z"/>
		<path fill-rule="evenodd" clip-rule="evenodd" fill="#166976" d="M33.715,41.333l-11.514,0c-0.002,0-0.005,0-0.008,0
			c-0.418,0-0.807-0.126-1.129-0.345c-0.537-0.363-0.891-0.977-0.891-1.674c0.001-0.002,0.001-0.005,0.001-0.008V27.794
			c0-1.115,0.903-2.018,2.019-2.018c1.114,0,2.018,0.903,2.018,2.018v9.503l9.504,0c1.114,0,2.019,0.903,2.018,2.018
			C35.733,40.431,34.83,41.333,33.715,41.333z"/>
		<path fill-rule="evenodd" clip-rule="evenodd" fill="#166976" d="M25.814,39.184c-0.982,0.983-2.575,0.983-3.559,0l0,0
			c-0.982-0.983-0.982-2.576,0-3.559l15.541-15.541c0.982-0.983,2.575-0.983,3.559,0l0,0c0.983,0.983,0.983,2.576,0,3.559
			L25.814,39.184z"/>
	</g>
</g>
</svg>
