<?xml version="1.0" encoding="utf-8"?>
<!-- Generator: Adobe Illustrator 16.0.0, SVG Export Plug-In . SVG Version: 6.00 Build 0)  -->
<!DOCTYPE svg PUBLIC "-//W3C//DTD SVG 1.1//EN" "http://www.w3.org/Graphics/SVG/1.1/DTD/svg11.dtd">
<svg version="1.1" id="Layer_1" xmlns="http://www.w3.org/2000/svg" xmlns:xlink="http://www.w3.org/1999/xlink" x="0px" y="0px"
	 width="234.01px" height="101.355px" viewBox="0 0 234.01 101.355" enable-background="new 0 0 234.01 101.355"
	 xml:space="preserve">
<path opacity="0.1" fill="#010101" enable-background="new    " d="M8.752,96.214c7.752,4.771,55.601,5.143,91.535,5.143
	c0.003,0,0.006,0,0.009,0c47.419,0,119.676-0.688,124.407-2.58c6.726-2.688,9.062-31.061,9.307-34.284
	c1.495-19.729,0.104-42.568-8.286-47.505c-1.888-1.108-7.63-4.486-100.451-4.486c-77.896,0-105.99,2.499-116.686,3.472
	c-2.698,0.244-4.72,3.387-6.179,9.605C-1.78,43.428-1.011,90.206,8.752,96.214z"/>
<g>
	<g>
		<path fill="#9DC64F" d="M224.202,7.073C221.616,5.552,205.325,3,125.272,3C47.446,3,19.516,5.49,8.859,6.458
			C8.17,6.521,6.651,8.13,5.33,13.763c-4.542,19.355-2.32,62.896,4.995,67.396c4.493,2.766,0.272,4.695,89.963,4.696
			c64.412,0,119.727-1.062,123.307-2.366c2.168-0.867,5.959-12.378,7.426-31.727C232.784,28.47,230.044,10.51,224.202,7.073z"/>
		<path fill="#1B6A76" d="M225.724,4.487C223.836,3.378,218.094,0,125.272,0C47.375,0,19.282,2.499,8.587,3.472
			c-2.698,0.244-4.72,3.387-6.179,9.605c-4.188,17.851-3.42,64.629,6.344,70.637c7.752,4.771,55.601,5.143,91.535,5.143
			c0.003,0,0.006,0,0.009,0c47.419,0,119.676-0.688,124.407-2.58c6.726-2.688,9.062-31.061,9.307-34.284
			C235.505,32.263,234.114,9.423,225.724,4.487z M231.021,51.764c-1.467,19.349-5.258,30.858-7.427,31.727
			c-3.579,1.305-58.895,2.366-123.307,2.366c-89.69-0.001-85.47-1.932-89.963-4.696C3.01,76.658,0.788,33.118,5.33,13.763
			C6.651,8.13,8.17,6.521,8.859,6.458C19.516,5.49,47.446,3,125.272,3c80.053,0,96.344,2.552,98.93,4.073
			C230.044,10.51,232.784,28.47,231.021,51.764z"/>
		<path fill="#94B844" d="M223.594,83.49c1.689-0.677,4.365-7.816,6.157-20.093c-20.009,6.629-41.793,6.269-62.975,5.793
			c-35.819-0.801-1.639,0.398-37.459-0.401c-22.882-0.513-45.982-3.053-68.202-8.54c-14.457-3.571-28.781-9.471-39.357-19.952
			c-8.676-8.598-14.41-20.726-14.125-32.76c-0.7,1.041-1.535,2.948-2.304,6.227C0.788,33.118,3.01,76.658,10.325,81.159
			c4.493,2.766,0.272,4.695,89.963,4.696C164.7,85.856,220.015,84.794,223.594,83.49z"/>
		<path fill="#C4D462" d="M187.385,13.818c-0.334-0.921-1.235-1.501-2.114-1.931c-3.812-1.858-8.172-2.141-12.403-2.391
			c-6.017-0.354-12.032-0.709-18.048-1.062c-8.016-0.471-16.072-0.938-24.057-0.093c-5.115,0.542-10.179,1.623-15.038,3.31
			c-1.861,0.646-4.082,2.111-3.514,3.998c0.449,1.492,2.327,1.91,3.878,2.074c22.174,2.332,44.725,4.652,66.635,0.519
			C185.132,17.786,188.218,16.124,187.385,13.818z"/>
		<path fill="#C4D462" d="M217.741,13.662c-0.326-1.35-1.766-2.167-3.133-2.665c-5.521-2.018-11.758-1.324-17.438,0.25
			c-1.204,0.333-2.458,0.742-3.274,1.642c-0.815,0.898-0.969,2.438,0.006,3.182c0.394,0.301,0.897,0.43,1.39,0.544
			c5.414,1.263,11.041,1.713,16.604,1.326c1.404-0.098,2.855-0.264,4.062-0.95C217.163,16.303,218.053,14.958,217.741,13.662z"/>
	</g>
</g>
<g enable-background="new    ">
	<path fill="#FFFFFF" d="M55.819,37.956c0.805-6.791,11.061-8.017,15.892-4.306c2.38,1.925-0.14,4.971-2.24,3.431
		c-2.59-1.646-8.471-2.416-9.206,1.225c-0.945,5.741,14.282,2.45,14.037,11.762c-0.245,8.891-13.126,9.101-17.957,5.11
		c-1.155-0.945-1.12-2.485-0.49-3.431c0.91-0.91,1.925-1.225,3.115-0.245c2.87,1.96,10.256,3.431,10.781-1.54
		C69.296,44.781,54.734,47.897,55.819,37.956z"/>
	<path fill="#FFFFFF" d="M94.811,35.016c0-3.115,4.585-3.36,4.585,0v12.671c0,13.092-21.107,13.092-21.107,0V35.016
		c0-3.15,4.586-3.291,4.586,0v12.671c0,6.896,11.936,7.316,11.936,0V35.016z"/>
	<path fill="#FFFFFF" d="M106.359,56.928c-1.26,0-2.135-0.945-2.135-2.17V34.875c0-1.26,0.875-2.17,2.135-2.17h9.836
		c4.585,0,7.071,3.115,7.071,6.686c0,1.575-0.455,3.115-1.926,4.411c2.766,1.085,3.99,3.22,3.99,5.811
		c0,4.025-2.73,7.315-7.98,7.315H106.359z M116.196,36.976h-7.386v5.216h7.386c1.504,0,2.45-0.945,2.45-2.801
		C118.646,38.236,117.7,36.976,116.196,36.976z M108.81,52.657h8.541c4.061,0,4.061-6.195,0-6.195c-2.66,0-5.775,0-8.541,0V52.657z"
		/>
	<path fill="#FFFFFF" d="M134.114,41.562v12.951c0,1.54-1.26,2.415-2.521,2.415c-1.12,0-2.101-0.875-2.101-2.415V34.806
		c0-1.82,1.541-2.415,2.101-2.415c1.015,0,1.61,0.595,2.205,1.26l7.701,10.396l7.98-10.781c1.155-1.436,3.991-0.875,3.991,1.54
		v19.707c0,1.54-0.98,2.415-2.101,2.415c-1.261,0-2.24-0.875-2.24-2.415V41.562l-5.812,7.351c-1.26,1.54-2.834,1.54-3.99,0
		L134.114,41.562z"/>
	<path fill="#FFFFFF" d="M158.579,34.806c0-2.87,4.62-2.976,4.62,0v19.987c0,2.905-4.62,2.975-4.62,0V34.806z"/>
	<path fill="#FFFFFF" d="M174.958,37.081h-6.125c-3.045,0-3.045-4.48,0-4.48h16.557c3.115,0,3.115,4.48,0,4.48h-5.811v17.677
		c0,3.045-4.621,3.115-4.621,0V37.081z"/>
</g>
</svg>
