<?xml version="1.0" encoding="utf-8"?>
<!-- Generator: Adobe Illustrator 16.0.0, SVG Export Plug-In . SVG Version: 6.00 Build 0)  -->
<!DOCTYPE svg PUBLIC "-//W3C//DTD SVG 1.1//EN" "http://www.w3.org/Graphics/SVG/1.1/DTD/svg11.dtd">
<svg version="1.1" id="Layer_1" xmlns="http://www.w3.org/2000/svg" xmlns:xlink="http://www.w3.org/1999/xlink" x="0px" y="0px"
	 width="63.75px" height="65.268px" viewBox="0 0 63.75 65.268" enable-background="new 0 0 63.75 65.268" xml:space="preserve">
<g>
	<g>
		<g opacity="0.1">
			<path d="M62.395,55.903c0,4.703-5.014,9.365-10.07,9.365l-40.889-0.851c-5.056,0-9.155-3.812-9.155-8.515l-0.915-35.19
				c0-4.702,5.015-8.514,10.07-8.514h40.889c5.057,0,9.154,3.812,9.154,8.514L62.395,55.903z"/>
		</g>
		<g>
			<path fill="#9CC54F" d="M12.832,56.551c-5.488,0-9.98-4.492-9.98-10.013L2.001,11.383c0-5.371,5.077-10.05,10.865-10.05h38.029
				c5.521,0,10.014,4.492,10.014,10.014l0.851,35.154c0,5.52-5.381,10.901-10.865,10.901L12.832,56.551z"/>
			<path fill="#1B6A76" d="M50.895,2.833c4.701,0,8.514,3.812,8.514,8.514l0.852,35.19c0,4.703-4.664,9.365-9.365,9.365
				l-38.029-0.852c-4.701,0-8.514-3.811-8.514-8.514L3.5,11.347c0-4.703,4.664-8.514,9.365-8.514H50.895 M50.895-0.167H12.866
				C6.279-0.167,0.5,5.213,0.5,11.347v0.036l0.001,0.037l0.851,35.157c0.021,6.318,5.159,11.455,11.478,11.474l37.997,0.851
				l0.034,0.001h0.034c6.356,0,12.365-6.009,12.365-12.365v-0.036l-0.001-0.037l-0.851-35.157
				C62.387,4.977,57.23-0.167,50.895-0.167L50.895-0.167z"/>
		</g>
		<path fill="#C3D361" d="M54.117,10.287c-0.277-1.148-1.504-1.845-2.666-2.27C46.75,6.301,41.439,6.891,36.604,8.23
			c-1.025,0.284-2.094,0.633-2.789,1.398s-0.824,2.075,0.006,2.709c0.334,0.255,0.764,0.365,1.182,0.462
			c4.609,1.075,9.4,1.458,14.139,1.13c1.195-0.083,2.432-0.225,3.457-0.81C53.623,12.534,54.383,11.389,54.117,10.287z"/>
		<g>
			<defs>
				<path id="SVGID_1_" d="M60.26,46.538c0,4.703-4.664,9.365-9.365,9.365l-38.029-0.852c-4.701,0-8.514-3.811-8.514-8.514
					L3.5,11.347c0-4.703,4.664-8.514,9.365-8.514h38.029c4.701,0,8.514,3.812,8.514,8.514L60.26,46.538z"/>
			</defs>
			<clipPath id="SVGID_2_">
				<use xlink:href="#SVGID_1_"  overflow="visible"/>
			</clipPath>
			<path clip-path="url(#SVGID_2_)" fill="#92B744" d="M3.5,11.347c0,0,5.037,17.808,10.997,23.343
				c5.96,5.533,12.771,6.598,22.561,6.598c9.791,0,23.201-6.811,23.201-6.811l1.49,21.426l-7.58,6.031H11.73L-5.51,51.292
				L3.5,11.347z"/>
		</g>
	</g>
	<path fill-rule="evenodd" clip-rule="evenodd" fill="#196976" d="M37.91,28.842c0,3.248-2.688,5.972-5.975,5.972
		c-3.359,0-5.973-2.762-5.973-5.972c0-3.361,2.763-5.937,5.937-5.937C35.296,22.905,37.91,25.667,37.91,28.842z M33.579,13.312
		c0.41,0.261,0.522,0.821,0.597,1.194c0.075,0.56,0.224,1.157,0.3,1.717c0.074,0.298,0,0.709,0.187,1.083
		c0.074,0.187,0.485,0.187,0.746,0.261c0.448,0.112,0.934,0.337,1.381,0.523c0.635,0.299,1.792,1.083,1.904,1.083
		c0.187,0,2.725-1.905,3.396-1.905c1.046,0,1.606,1.121,2.39,2.054c0.149,0.149,0.225,0.597,0.225,0.672
		c0,0.187-0.149,0.634-0.262,0.784c-0.672,0.858-2.054,2.501-2.054,2.613c0,0.075,0.225,0.448,0.299,0.672
		c0.224,0.485,0.411,1.045,0.561,1.568c0.037,0.112,0,0.336,0.187,0.411c0.187,0.112,0.485,0.112,0.747,0.149
		c0.821,0.112,1.643,0.299,2.463,0.411c0.448,0.075,1.045,0.821,1.045,1.232v2.017c-0.036,0.485-0.559,1.157-1.045,1.231
		c-0.148,0.038-0.373,0.038-0.521,0.075c-0.896,0.149-1.793,0.336-2.688,0.486c-0.037,0.037-0.074,0.112-0.111,0.149
		c-0.038,0.224-0.112,0.448-0.188,0.672c-0.037,0.112-0.074,0.262-0.149,0.411c-0.075,0.224-0.225,0.522-0.336,0.821
		c-0.187,0.374-0.635,1.194-0.635,1.307c0,0.148,1.681,2.201,2.054,3.061c0.037,0.074,0.074,0.299,0.074,0.373
		c0,0.111-0.037,0.373-0.111,0.523c-0.336,0.635-1.195,1.418-1.83,1.941c-0.187,0.148-0.56,0.224-0.71,0.224
		c-0.186,0-0.448-0.037-0.635-0.187c-0.97-0.598-2.762-1.979-2.836-1.979c-0.111,0-0.448,0.224-0.635,0.336
		c-0.635,0.299-1.307,0.635-1.941,0.82c-0.335,0.113-0.672,0-0.783,0.3c-0.149,0.336-0.112,0.747-0.187,1.12
		c-0.038,0.336-0.149,0.672-0.187,1.008c-0.225,2.352-1.12,2.127-2.39,2.127c-0.822,0-1.979,0.188-2.278-1.119
		c-0.261-1.045-0.261-2.127-0.522-3.136c-0.037-0.149-0.224-0.149-0.299-0.187c-0.298-0.074-0.635-0.188-0.933-0.299
		c-0.448-0.187-1.046-0.41-1.53-0.672c-0.374-0.225-1.046-0.635-1.12-0.635c-0.112,0-1.941,1.195-2.874,1.754
		c-0.262,0.15-0.448,0.15-0.599,0.15c-0.336,0-0.448,0-0.783-0.262c-0.3-0.187-0.561-0.522-0.821-0.822
		c-0.262-0.336-0.822-0.858-0.896-1.156c-0.038-0.15-0.076-0.412-0.076-0.486c0-0.261-0.037-0.447,0.187-0.709
		c0.673-0.934,2.129-2.576,2.129-2.65c0-0.111-0.188-0.262-0.225-0.373c-0.224-0.448-0.411-0.933-0.56-1.382
		c-0.075-0.224-0.187-0.484-0.224-0.746c-0.038-0.074,0-0.261-0.112-0.298c-1.082-0.262-2.165-0.411-3.248-0.561
		c-0.56-0.074-1.045-0.821-1.045-1.194v-2.054c0-0.485,0.56-1.194,1.082-1.232c0.188-0.038,0.374-0.075,0.635-0.112
		c0.113-0.038,0.337-0.038,0.522-0.075c0.411-0.075,0.858-0.149,1.308-0.224c0.186-0.037,0.709,0,0.783-0.187
		c0.075-0.187,0.112-0.448,0.187-0.634c0.188-0.597,0.411-1.157,0.672-1.68c0.112-0.298,0.523-0.858,0.523-0.97
		c0-0.075-1.345-1.867-1.979-2.837c-0.074-0.149-0.074-0.448-0.074-0.523c0-0.224-0.037-0.522,0.188-0.747
		c0.56-0.634,1.119-1.195,1.717-1.718c0.038-0.074,0.561-0.186,0.71-0.186c0.111,0,0.373,0,0.522,0.074
		c0.97,0.635,2.762,1.979,2.837,1.979c0.111,0,1.083-0.598,1.642-0.821c0.337-0.149,0.785-0.3,1.195-0.412
		c0.112-0.037,0.485-0.075,0.56-0.224c0.075-0.149,0.112-0.336,0.112-0.523c0.598-3.248,0.149-3.732,2.688-3.732
		C32.385,13.05,33.094,12.976,33.579,13.312z"/>
</g>
</svg>
