<?xml version="1.0" encoding="utf-8"?>
<!-- Generator: Adobe Illustrator 16.0.0, SVG Export Plug-In . SVG Version: 6.00 Build 0)  -->
<!DOCTYPE svg PUBLIC "-//W3C//DTD SVG 1.1//EN" "http://www.w3.org/Graphics/SVG/1.1/DTD/svg11.dtd">
<svg version="1.1" id="Layer_1" xmlns="http://www.w3.org/2000/svg" xmlns:xlink="http://www.w3.org/1999/xlink" x="0px" y="0px"
	 width="234.01px" height="101.356px" viewBox="0 0 234.01 101.356" enable-background="new 0 0 234.01 101.356"
	 xml:space="preserve">
<path opacity="0.1" d="M8.752,96.214c7.752,4.771,55.601,5.143,91.535,5.143c0.003,0,0.006,0,0.009,0
	c47.419,0,119.676-0.688,124.407-2.58c6.725-2.689,9.062-31.061,9.307-34.285c1.495-19.729,0.104-42.568-8.287-47.504
	c-1.887-1.109-7.629-4.487-100.451-4.487c-77.896,0-105.99,2.499-116.685,3.472c-2.698,0.244-4.72,3.387-6.179,9.605
	C-1.78,43.428-1.011,90.206,8.752,96.214z"/>
<g>
	<g>
		<path fill="#9CC54F" d="M224.202,7.073C221.616,5.552,205.325,3,125.272,3C47.446,3,19.516,5.49,8.859,6.458
			C8.17,6.521,6.651,8.13,5.33,13.763C0.788,33.118,3.01,76.658,10.325,81.159c4.493,2.766,0.272,4.696,89.963,4.697
			c64.412,0,119.727-1.062,123.307-2.367c2.168-0.867,5.959-12.377,7.426-31.726C232.784,28.47,230.044,10.51,224.202,7.073z"/>
		<path fill="#196976" d="M225.723,4.487C223.836,3.378,218.094,0,125.272,0C47.375,0,19.282,2.499,8.587,3.472
			c-2.698,0.244-4.72,3.387-6.179,9.605c-4.188,17.851-3.42,64.629,6.344,70.637c7.752,4.771,55.601,5.143,91.535,5.143
			c0.003,0,0.006,0,0.009,0c47.419,0,119.676-0.688,124.407-2.58c6.725-2.689,9.062-31.061,9.307-34.285
			C235.505,32.263,234.114,9.423,225.723,4.487z M231.02,51.764c-1.467,19.349-5.258,30.858-7.426,31.726
			c-3.58,1.305-58.895,2.367-123.307,2.367c-89.69-0.001-85.47-1.932-89.963-4.697C3.01,76.658,0.788,33.118,5.33,13.763
			C6.651,8.13,8.17,6.521,8.859,6.458C19.516,5.49,47.446,3,125.272,3c80.053,0,96.344,2.552,98.93,4.073
			C230.044,10.51,232.784,28.47,231.02,51.764z"/>
		<path fill="#92B744" d="M223.594,83.489c1.689-0.676,4.365-7.816,6.157-20.092c-20.009,6.629-41.793,6.268-62.974,5.793
			c-35.82-0.801-1.639,0.398-37.459-0.402c-22.883-0.512-45.983-3.052-68.203-8.54c-14.457-3.571-28.781-9.47-39.357-19.952
			c-8.676-8.598-14.41-20.725-14.125-32.76c-0.7,1.041-1.535,2.949-2.304,6.227C0.788,33.118,3.01,76.658,10.325,81.159
			c4.493,2.766,0.272,4.696,89.963,4.697C164.7,85.856,220.014,84.794,223.594,83.489z"/>
		<path fill="#C3D361" d="M187.385,13.818c-0.334-0.921-1.235-1.501-2.115-1.931c-3.811-1.858-8.171-2.141-12.403-2.391
			c-6.017-0.354-12.032-0.709-18.048-1.062c-8.015-0.471-16.072-0.938-24.056-0.093c-5.115,0.542-10.179,1.623-15.038,3.31
			c-1.861,0.646-4.082,2.111-3.514,3.998c0.449,1.492,2.327,1.91,3.878,2.074c22.174,2.332,44.725,4.652,66.634,0.518
			C185.132,17.786,188.218,16.124,187.385,13.818z"/>
		<path fill="#C3D361" d="M217.741,13.662c-0.326-1.349-1.766-2.167-3.132-2.665c-5.522-2.017-11.759-1.324-17.439,0.25
			c-1.204,0.333-2.458,0.742-3.274,1.642c-0.816,0.898-0.969,2.437,0.006,3.182c0.393,0.3,0.897,0.429,1.389,0.543
			c5.414,1.263,11.041,1.713,16.605,1.327c1.404-0.098,2.855-0.264,4.061-0.951S218.053,14.958,217.741,13.662z"/>
	</g>
</g>
<g>
	<path fill="#FFFFFF" d="M71.185,56.928c-1.26,0-2.135-0.945-2.135-2.17V34.875c0-1.26,0.875-2.17,2.135-2.17h9.836
		c4.585,0,7.07,3.115,7.07,6.686c0,1.575-0.455,3.115-1.925,4.411c2.765,1.085,3.99,3.22,3.99,5.811c0,4.025-2.73,7.315-7.981,7.315
		H71.185z M81.021,36.976h-7.386v5.216h7.386c1.505,0,2.45-0.945,2.45-2.801C83.471,38.235,82.526,36.976,81.021,36.976z
		 M73.635,52.657h8.541c4.061,0,4.061-6.195,0-6.195c-2.66,0-5.775,0-8.541,0V52.657z"/>
	<path fill="#FFFFFF" d="M96.419,56.928c-1.225,0-2.17-0.945-2.17-2.17V34.875c0-1.26,0.945-2.17,2.17-2.17h12.566
		c3.22,0,3.15,4.551,0,4.551H98.905v5.25h8.821c3.115,0,3.115,4.586,0,4.586h-8.821v5.25h10.676c3.185,0,3.43,4.586,0,4.586H96.419z
		"/>
	<path fill="#FFFFFF" d="M136.461,54.232c-2.485,2.065-5.531,2.94-8.611,2.94c-7.351,0-12.566-4.2-12.566-12.531
		c0-7.071,5.496-12.566,12.881-12.566c2.765,0,5.811,0.945,7.981,3.08c2.135,2.101-0.945,5.216-3.045,3.36
		c-1.295-1.26-3.115-2.205-4.936-2.205c-4.235,0-8.331,3.396-8.331,8.331c0,5.181,3.431,8.331,8.016,8.331
		c2.135,0,3.955-0.631,5.25-1.575v-4.306h-5.25c-3.116,0-2.8-4.271,0-4.271h7c1.295,0,2.485,0.98,2.485,2.065v7.455
		C137.336,52.973,137.056,53.567,136.461,54.232z"/>
	<path fill="#FFFFFF" d="M142.654,34.806c0-2.87,4.621-2.976,4.621,0v19.987c0,2.905-4.621,2.975-4.621,0V34.806z"/>
	<path fill="#FFFFFF" d="M152.488,35.155c0-1.26,0.28-2.485,2.1-2.485c1.26,0,1.54,0.315,2.485,1.226l11.586,14.491V34.806
		c0-1.155,1.015-2.415,2.206-2.415c1.26,0,2.485,1.26,2.485,2.415v19.707c0,1.54-0.945,2.135-1.855,2.415
		c-1.225,0-1.82-0.28-2.835-1.226l-11.586-14.701v13.512c0,1.54-0.945,2.415-2.205,2.415c-1.26,0-2.38-0.875-2.38-2.415V35.155z"/>
</g>
</svg>
