<?xml version="1.0" encoding="utf-8"?>
<!-- Generator: Adobe Illustrator 16.0.0, SVG Export Plug-In . SVG Version: 6.00 Build 0)  -->
<!DOCTYPE svg PUBLIC "-//W3C//DTD SVG 1.1//EN" "http://www.w3.org/Graphics/SVG/1.1/DTD/svg11.dtd">
<svg version="1.1" id="Layer_1" xmlns="http://www.w3.org/2000/svg" xmlns:xlink="http://www.w3.org/1999/xlink" x="0px" y="0px"
	 width="63.75px" height="65.268px" viewBox="0 0 63.75 65.268" enable-background="new 0 0 63.75 65.268" xml:space="preserve">
<g>
	<g opacity="0.1">
		<path d="M62.395,55.903c0,4.703-5.014,9.365-10.07,9.365l-40.889-0.851c-5.056,0-9.155-3.812-9.155-8.515l-0.915-35.19
			c0-4.702,5.015-8.514,10.07-8.514h40.889c5.057,0,9.154,3.812,9.154,8.514L62.395,55.903z"/>
	</g>
	<g>
		<path fill="#9CC54F" d="M12.832,56.551c-5.488,0-9.98-4.492-9.98-10.013L2.001,11.383c0-5.371,5.077-10.05,10.865-10.05h38.029
			c5.521,0,10.014,4.492,10.014,10.014l0.851,35.154c0,5.52-5.381,10.901-10.865,10.901L12.832,56.551z"/>
		<path fill="#1B6A76" d="M50.895,2.833c4.701,0,8.514,3.812,8.514,8.514l0.852,35.19c0,4.703-4.664,9.365-9.365,9.365
			l-38.029-0.852c-4.701,0-8.514-3.811-8.514-8.514L3.5,11.347c0-4.703,4.664-8.514,9.365-8.514H50.895 M50.895-0.167H12.866
			C6.279-0.167,0.5,5.213,0.5,11.347v0.036l0.001,0.037l0.851,35.157c0.021,6.318,5.159,11.455,11.478,11.474l37.997,0.851
			l0.034,0.001h0.034c6.356,0,12.365-6.009,12.365-12.365v-0.036l-0.001-0.037l-0.851-35.157C62.387,4.977,57.23-0.167,50.895-0.167
			L50.895-0.167z"/>
	</g>
	<path fill="#C3D361" d="M54.117,10.287c-0.277-1.148-1.504-1.845-2.666-2.27C46.75,6.301,41.439,6.891,36.604,8.23
		c-1.025,0.284-2.094,0.633-2.789,1.398s-0.824,2.075,0.006,2.709c0.334,0.255,0.764,0.365,1.182,0.462
		c4.609,1.075,9.4,1.458,14.139,1.13c1.195-0.083,2.432-0.225,3.457-0.81C53.623,12.534,54.383,11.389,54.117,10.287z"/>
	<g>
		<defs>
			<path id="SVGID_1_" d="M60.26,46.538c0,4.703-4.664,9.365-9.365,9.365l-38.029-0.852c-4.701,0-8.514-3.811-8.514-8.514
				L3.5,11.347c0-4.703,4.664-8.514,9.365-8.514h38.029c4.701,0,8.514,3.812,8.514,8.514L60.26,46.538z"/>
		</defs>
		<clipPath id="SVGID_2_">
			<use xlink:href="#SVGID_1_"  overflow="visible"/>
		</clipPath>
		<path clip-path="url(#SVGID_2_)" fill="#92B744" d="M3.5,11.347c0,0,5.037,17.808,10.997,23.343
			c5.96,5.533,12.771,6.598,22.561,6.598c9.791,0,23.201-6.811,23.201-6.811l1.49,21.426l-7.58,6.031H11.73L-5.51,51.292L3.5,11.347
			z"/>
	</g>
</g>
<path fill-rule="evenodd" clip-rule="evenodd" fill="#166976" d="M25.171,16.866c2.273,2.125,6.598,6.673,6.709,6.673
	c0.075,0,4.475-4.585,6.822-6.784c0.187-0.224,0.484-0.298,0.783-0.373c0.111-0.037,0.335,0,0.41,0c0.484,0,0.298,0,0.969,0.187
	c0.112,0.037,0.261,0.149,0.373,0.261c0.373,0.298,0.708,0.671,1.044,1.006c0.708,0.708,1.453,1.417,2.199,2.274
	c0.187,0.187,0.409,0.857,0.409,1.193c0,0.224-0.111,0.82-0.335,1.081c-2.088,2.274-4.622,4.698-6.858,6.971
	c2.273,2.311,4.696,4.548,6.858,6.971c0.224,0.224,0.335,0.821,0.335,1.082c0,0.448-0.037,0.783-0.409,1.23
	c-0.97,1.155-2.088,2.162-3.169,3.168c-0.074,0.112-0.187,0.224-0.298,0.261c-0.187,0.112-0.56,0.298-0.671,0.298h-0.82
	c-0.484-0.149-0.857-0.41-1.268-0.82c-2.125-2.162-6.3-6.337-6.375-6.337c-0.111,0-4.659,4.623-6.896,6.785
	c-0.187,0.149-0.41,0.224-0.634,0.298c-0.188,0.075-0.448,0.075-0.561,0.075c-0.447,0-0.559,0.074-1.043-0.298
	c-1.156-0.857-2.312-2.199-3.43-3.317c-0.074-0.075-0.447-0.783-0.447-0.969v-0.708c0.111-0.374,0.336-0.858,0.783-1.268
	c2.124-2.087,6.375-6.337,6.375-6.449c0-0.074-4.586-4.585-6.785-6.859c-0.075-0.037-0.373-0.708-0.373-0.857v-0.671
	c0.074-0.298,0.149-0.671,0.373-0.895c1.006-1.156,2.199-2.311,3.317-3.317c0.187-0.187,0.597-0.298,0.82-0.373h0.409
	C24.388,16.382,24.538,16.307,25.171,16.866z"/>
</svg>
