<?xml version="1.0" encoding="utf-8"?>
<!-- Generator: Adobe Illustrator 16.0.0, SVG Export Plug-In . SVG Version: 6.00 Build 0)  -->
<!DOCTYPE svg PUBLIC "-//W3C//DTD SVG 1.1//EN" "http://www.w3.org/Graphics/SVG/1.1/DTD/svg11.dtd">
<svg version="1.1" id="Layer_1" xmlns="http://www.w3.org/2000/svg" xmlns:xlink="http://www.w3.org/1999/xlink" x="0px" y="0px"
	 width="63.75px" height="65.268px" viewBox="0 0 63.75 65.268" enable-background="new 0 0 63.75 65.268" xml:space="preserve">
<g>
	<g>
		<g opacity="0.1">
			<path d="M62.75,55.338c0,4.703-5.014,9.365-10.07,9.365l-40.889-0.851c-5.057,0-9.156-3.812-9.156-8.515l-0.914-35.19
				c0-4.702,5.014-8.515,10.07-8.515H52.68c5.057,0,9.154,3.812,9.154,8.515L62.75,55.338z"/>
		</g>
		<g>
			<path fill="#1AD03F" d="M13.187,55.987c-5.488,0-9.98-4.492-9.98-10.014L2.356,10.819c0-5.371,5.077-10.051,10.865-10.051H51.25
				c5.521,0,10.014,4.493,10.014,10.015l0.852,35.154c0,5.52-5.382,10.901-10.865,10.901L13.187,55.987z"/>
			<path fill="#196A76" d="M51.25,2.268c4.701,0,8.514,3.812,8.514,8.515l0.852,35.19c0,4.703-4.664,9.365-9.365,9.365
				l-38.029-0.852c-4.701,0-8.514-3.811-8.514-8.514l-0.852-35.19c0-4.702,4.664-8.515,9.365-8.515H51.25 M51.25-0.732H13.221
				c-6.587,0-12.365,5.381-12.365,11.515v0.036l0.001,0.037l0.851,35.157c0.021,6.318,5.159,11.455,11.478,11.475l37.998,0.851
				l0.034,0.001h0.033c6.355,0,12.365-6.009,12.365-12.365v-0.036l-0.001-0.036l-0.851-35.158
				C62.742,4.412,57.586-0.732,51.25-0.732L51.25-0.732z"/>
		</g>
		<path fill="#75EA89" d="M54.473,9.722c-0.277-1.147-1.504-1.845-2.666-2.27c-4.701-1.716-10.012-1.126-14.849,0.213
			c-1.025,0.284-2.092,0.633-2.787,1.397c-0.695,0.766-0.824,2.075,0.004,2.709c0.336,0.256,0.766,0.365,1.184,0.463
			c4.608,1.075,9.399,1.458,14.138,1.13c1.195-0.083,2.432-0.225,3.457-0.81C53.979,11.969,54.738,10.824,54.473,9.722z"/>
		<g>
			<defs>
				<path id="SVGID_1_" d="M60.615,45.973c0,4.703-4.664,9.365-9.365,9.365l-38.029-0.852c-4.701,0-8.514-3.811-8.514-8.514
					l-0.852-35.19c0-4.702,4.664-8.515,9.365-8.515H51.25c4.701,0,8.514,3.812,8.514,8.515L60.615,45.973z"/>
			</defs>
			<clipPath id="SVGID_2_">
				<use xlink:href="#SVGID_1_"  overflow="visible"/>
			</clipPath>
			<path clip-path="url(#SVGID_2_)" fill="#189B2E" d="M3.855,10.782c0,0,5.037,17.808,10.998,23.343
				c5.959,5.533,12.77,6.598,22.561,6.598s23.201-6.811,23.201-6.811l1.49,21.426l-7.58,6.031H12.086l-17.24-10.643L3.855,10.782z"
				/>
		</g>
	</g>
	<path fill-rule="evenodd" clip-rule="evenodd" fill="#FFFFFF" stroke="#FFFFFF" stroke-miterlimit="10" d="M30.873,23.794
		c0.51,1.019,1.324,2.75,1.324,3.056c0,0.204-1.12,1.428-1.12,1.733c0,1.528,3.87,4.074,4.583,4.074
		c0.306,0,1.428-1.731,1.733-1.731c0.204,0,1.834,0.713,2.75,1.223c0.204,0.102,0.407,0.305,0.407,0.509
		c0,1.833-1.731,2.852-3.055,2.852c-0.917,0-2.345-0.611-3.16-1.019c-2.444-1.019-5.296-3.972-6.213-6.416
		c0-0.103-0.102-0.103-0.102-0.306v-2.243c1.12-1.935,0.917-1.731,2.037-1.731H30.873z M44.523,29.5
		c0,6.213-4.991,10.389-10.492,10.389c-2.648,0-5.5-1.731-5.806-1.731c-0.204,0-2.241,0.611-3.361,0.916
		c0.204-1.12,0.917-3.259,0.917-3.462c0-0.306-0.611-0.917-0.815-1.324c-0.61-1.121-1.12-3.463-1.12-4.787
		c0-5.909,4.686-10.289,10.389-10.289C40.348,19.211,44.523,24.1,44.523,29.5z M36.373,17.174
		c6.725,1.223,10.289,7.13,10.289,12.326c0,7.129-5.907,12.527-12.631,12.527c-2.241,0-3.769-0.814-6.111-1.527l-6.111,1.527v-0.611
		l1.63-5.5c-0.306-0.509-1.63-3.463-1.63-4.481v-3.768c0.204-0.919,0.51-1.938,0.815-2.956c0.814-2.75,5.092-6.62,7.842-7.13
		c0.51-0.102,1.019-0.203,1.528-0.407h2.139C34.438,17.174,35.66,17.073,36.373,17.174z"/>
</g>
</svg>
