<?xml version="1.0" encoding="utf-8"?>
<!-- Generator: Adobe Illustrator 16.0.0, SVG Export Plug-In . SVG Version: 6.00 Build 0)  -->
<!DOCTYPE svg PUBLIC "-//W3C//DTD SVG 1.1//EN" "http://www.w3.org/Graphics/SVG/1.1/DTD/svg11.dtd">
<svg version="1.1" id="Layer_1" xmlns="http://www.w3.org/2000/svg" xmlns:xlink="http://www.w3.org/1999/xlink" x="0px" y="0px"
	 width="63.75px" height="65.268px" viewBox="0 0 63.75 65.268" enable-background="new 0 0 63.75 65.268" xml:space="preserve">
<g>
	<g>
		<g opacity="0.1">
			<path d="M62.75,55.338c0,4.703-5.014,9.365-10.07,9.365l-40.889,0.149c-5.056,0-9.155-3.812-9.155-8.515l-0.915-35.19
				c0-4.702,5.015-8.515,10.07-8.515H52.68c5.057,0,9.154,3.812,9.154,8.515L62.75,55.338z"/>
		</g>
		<g>
			<path fill="#029AD7" d="M13.222,56.987c-5.521,0-10.014-4.492-10.014-10.014L2.357,11.819c0-5.371,5.077-10.051,10.865-10.051
				H51.25c5.521,0,10.014,4.493,10.014,10.015l0.852,34.153c0,5.521-5.382,10.902-10.865,10.902l-38.025,0.148H13.222z"/>
			<g>
				<path fill="#196A76" d="M51.25,3.268c4.701,0,8.514,3.812,8.514,8.515l0.852,34.19c0,4.703-4.664,9.365-9.365,9.365
					l-38.028,0.148c-4.701,0-8.514-3.811-8.514-8.514l-0.852-35.19c0-4.702,4.664-8.515,9.365-8.515H51.25 M51.25,0.268H13.222
					c-6.587,0-12.365,5.381-12.365,11.515v0.036l0.001,0.037l0.851,35.157c0.021,6.331,5.178,11.475,11.514,11.475l38.04-0.148
					c6.344,0,12.354-6.009,12.354-12.365v-0.037l-0.001-0.038l-0.851-34.155C62.741,5.412,57.585,0.268,51.25,0.268L51.25,0.268z"/>
			</g>
		</g>
		<path fill="#4EAFE2" d="M54.473,10.722c-0.277-1.147-1.504-1.845-2.666-2.27c-4.701-1.716-10.012-1.126-14.848,0.213
			c-1.025,0.284-2.092,0.633-2.787,1.397c-0.695,0.766-0.824,2.075,0.004,2.709c0.336,0.256,0.766,0.365,1.184,0.463
			c4.607,1.075,9.398,1.458,14.137,1.13c1.195-0.083,2.432-0.225,3.457-0.81C53.979,12.969,54.738,11.824,54.473,10.722z"/>
		<g>
			<defs>
				<path id="SVGID_1_" d="M60.615,45.973c0,4.703-4.664,9.365-9.365,9.365l-38.028,0.148c-4.701,0-8.514-3.811-8.514-8.514
					l-0.852-35.19c0-4.702,4.664-8.515,9.365-8.515H51.25c4.701,0,8.514,3.812,8.514,8.515L60.615,45.973z"/>
			</defs>
			<clipPath id="SVGID_2_">
				<use xlink:href="#SVGID_1_"  overflow="visible"/>
			</clipPath>
			<path clip-path="url(#SVGID_2_)" fill="#0E6EB6" d="M3.856,11.782c0,0,5.037,17.808,10.997,23.343
				c5.96,5.533,12.771,6.598,22.561,6.598c9.791,0,23.201-6.811,23.201-6.811l1.49,20.426l-7.58,6.031l-42.439,1l-17.24-10.643
				L3.856,11.782z"/>
		</g>
	</g>
	<path fill="#FFFFFF" d="M48.389,23.758c-0.928,0.411-1.926,0.689-2.971,0.815c1.068-0.641,1.889-1.653,2.273-2.864
		c-0.998,0.595-2.105,1.025-3.283,1.258c-0.943-1.006-2.289-1.635-3.777-1.635c-2.857,0-5.174,2.316-5.174,5.174
		c0,0.406,0.045,0.801,0.133,1.18c-4.298-0.215-8.11-2.274-10.664-5.406c-0.442,0.765-0.698,1.653-0.698,2.601
		c0,1.797,0.912,3.379,2.301,4.305c-0.848-0.024-1.646-0.259-2.343-0.646v0.065c0,2.505,1.784,4.599,4.149,5.072
		c-0.434,0.119-0.893,0.183-1.364,0.183c-0.332,0-0.658-0.033-0.972-0.095c0.657,2.057,2.568,3.55,4.831,3.595
		c-1.769,1.386-4,2.214-6.425,2.214c-0.417,0-0.828-0.026-1.233-0.071c2.289,1.465,5.008,2.322,7.931,2.322
		c9.516,0,14.719-7.883,14.719-14.72c0-0.223-0.006-0.446-0.014-0.668C46.816,25.708,47.693,24.795,48.389,23.758z"/>
</g>
</svg>
