<?xml version="1.0" encoding="utf-8"?>
<!-- Generator: Adobe Illustrator 16.0.0, SVG Export Plug-In . SVG Version: 6.00 Build 0)  -->
<!DOCTYPE svg PUBLIC "-//W3C//DTD SVG 1.1//EN" "http://www.w3.org/Graphics/SVG/1.1/DTD/svg11.dtd">
<svg version="1.1" id="Layer_1" xmlns="http://www.w3.org/2000/svg" xmlns:xlink="http://www.w3.org/1999/xlink" x="0px" y="0px"
	 width="63.75px" height="65.268px" viewBox="0 0 63.75 65.268" enable-background="new 0 0 63.75 65.268" xml:space="preserve">
<g>
	<g>
		<g opacity="0.1">
			<path d="M62.75,56.338c0,4.703-5.014,9.365-10.07,9.365l-40.889-0.851c-5.056,0-9.155-3.812-9.155-8.515l-0.915-35.19
				c0-4.702,5.015-8.515,10.07-8.515H52.68c5.057,0,9.154,3.812,9.154,8.515L62.75,56.338z"/>
		</g>
		<g>
			<path fill="#385D99" d="M13.188,56.987c-5.488,0-9.98-4.492-9.98-10.014L2.357,11.819c0-5.371,5.077-10.051,10.865-10.051H51.25
				c5.521,0,10.014,4.493,10.014,10.015l0.852,35.154c0,5.52-5.382,10.901-10.865,10.901L13.188,56.987z"/>
			<g>
				<path fill="#196A76" d="M51.25,3.268c4.701,0,8.514,3.812,8.514,8.515l0.852,35.19c0,4.703-4.664,9.365-9.365,9.365
					l-38.028-0.852c-4.701,0-8.514-3.811-8.514-8.514l-0.852-35.19c0-4.702,4.664-8.515,9.365-8.515H51.25 M51.25,0.268H13.222
					c-6.587,0-12.365,5.381-12.365,11.515v0.036l0.001,0.037l0.851,35.157c0.021,6.318,5.159,11.455,11.478,11.475l37.997,0.851
					l0.034,0.001h0.033c6.355,0,12.365-6.009,12.365-12.365v-0.036l-0.001-0.036l-0.851-35.158
					C62.742,5.412,57.586,0.268,51.25,0.268L51.25,0.268z"/>
			</g>
		</g>
		<path fill="#4466AF" d="M54.473,10.722c-0.277-1.147-1.504-1.845-2.666-2.27c-4.701-1.716-10.012-1.126-14.848,0.213
			c-1.025,0.284-2.092,0.633-2.787,1.397c-0.695,0.766-0.824,2.075,0.004,2.709c0.336,0.256,0.766,0.365,1.184,0.463
			c4.607,1.075,9.398,1.458,14.137,1.13c1.195-0.083,2.432-0.225,3.457-0.81C53.979,12.969,54.738,11.824,54.473,10.722z"/>
		<g>
			<defs>
				<path id="SVGID_1_" d="M60.615,46.973c0,4.703-4.664,9.365-9.365,9.365l-38.028-0.852c-4.701,0-8.514-3.811-8.514-8.514
					l-0.852-35.19c0-4.702,4.664-8.515,9.365-8.515H51.25c4.701,0,8.514,3.812,8.514,8.515L60.615,46.973z"/>
			</defs>
			<clipPath id="SVGID_2_">
				<use xlink:href="#SVGID_1_"  overflow="visible"/>
			</clipPath>
			<path clip-path="url(#SVGID_2_)" fill="#204373" d="M3.856,11.782c0,0,5.037,17.808,10.997,23.343
				c5.96,5.533,12.771,6.598,22.561,6.598c9.791,0,23.201-6.811,23.201-6.811l1.49,21.426l-7.58,6.031H12.086l-17.24-10.643
				L3.856,11.782z"/>
		</g>
	</g>
	<path fill="#FFFFFF" d="M38.508,30.997l0.623-4.837H34.34v-3.088c0-1.399,0.393-2.354,2.398-2.354l2.561-0.001v-4.325
		c-0.443-0.06-1.961-0.192-3.73-0.192c-3.693,0-6.22,2.256-6.22,6.394v3.566h-4.176v4.837h4.176v12.408h4.992V30.997H38.508z"/>
</g>
</svg>
