<?xml version="1.0" encoding="utf-8"?>
<!-- Generator: Adobe Illustrator 16.0.0, SVG Export Plug-In . SVG Version: 6.00 Build 0)  -->
<!DOCTYPE svg PUBLIC "-//W3C//DTD SVG 1.1//EN" "http://www.w3.org/Graphics/SVG/1.1/DTD/svg11.dtd">
<svg version="1.1" id="Layer_1" xmlns="http://www.w3.org/2000/svg" xmlns:xlink="http://www.w3.org/1999/xlink" x="0px" y="0px"
	 width="63.75px" height="65.268px" viewBox="0 0 63.75 65.268" enable-background="new 0 0 63.75 65.268" xml:space="preserve">
<g>
	<g opacity="0.1">
		<path d="M62.395,55.903c0,4.703-5.014,9.365-10.069,9.365l-40.889-0.851c-5.056,0-9.155-3.812-9.155-8.516L1.366,20.712
			c0-4.702,5.015-8.514,10.07-8.514h40.889c5.057,0,9.153,3.812,9.153,8.514L62.395,55.903z"/>
	</g>
	<g>
		<path fill="#9CC54F" d="M12.832,56.551c-5.488,0-9.98-4.492-9.98-10.013L2.001,11.383c0-5.371,5.077-10.05,10.865-10.05h38.028
			c5.521,0,10.015,4.492,10.015,10.014l0.851,35.154c0,5.52-5.381,10.9-10.865,10.9L12.832,56.551z"/>
		<path fill="#1B6A76" d="M50.895,2.833c4.701,0,8.515,3.812,8.515,8.514l0.852,35.19c0,4.703-4.663,9.364-9.364,9.364L12.867,55.05
			c-4.701,0-8.514-3.811-8.514-8.514L3.5,11.347c0-4.703,4.664-8.514,9.365-8.514H50.895 M50.895-0.167H12.866
			C6.279-0.167,0.5,5.213,0.5,11.347v0.036l0.001,0.037l0.851,35.157c0.021,6.317,5.159,11.455,11.478,11.474l37.997,0.851
			l0.034,0.001h0.033c6.356,0,12.365-6.009,12.365-12.364v-0.036l-0.001-0.037l-0.851-35.157C62.387,4.977,57.23-0.167,50.895-0.167
			L50.895-0.167z"/>
	</g>
	<path fill="#C3D361" d="M54.117,10.287c-0.277-1.148-1.504-1.846-2.666-2.271C46.75,6.301,41.439,6.891,36.604,8.23
		c-1.024,0.284-2.094,0.633-2.789,1.398c-0.694,0.765-0.823,2.075,0.006,2.709c0.334,0.255,0.765,0.365,1.183,0.462
		c4.608,1.075,9.399,1.458,14.14,1.13c1.194-0.083,2.432-0.225,3.457-0.81C53.623,12.534,54.383,11.389,54.117,10.287z"/>
	<g>
		<g>
			<defs>
				<path id="SVGID_1_" d="M60.26,46.538c0,4.703-4.664,9.364-9.365,9.364l-38.028-0.852c-4.701,0-8.514-3.811-8.514-8.514
					L3.5,11.347c0-4.703,4.664-8.514,9.365-8.514h38.029c4.701,0,8.514,3.812,8.514,8.514L60.26,46.538z"/>
			</defs>
			<clipPath id="SVGID_2_">
				<use xlink:href="#SVGID_1_"  overflow="visible"/>
			</clipPath>
			<path clip-path="url(#SVGID_2_)" fill="#92B744" d="M3.5,11.347c0,0,5.037,17.809,10.997,23.343
				c5.96,5.533,12.771,6.599,22.562,6.599c9.791,0,23.2-6.812,23.2-6.812l1.49,21.426l-7.58,6.031H11.73L-5.51,51.292L3.5,11.347z"
				/>
		</g>
	</g>
</g>
<path fill-rule="evenodd" clip-rule="evenodd" fill="#166976" d="M39.037,20.689l-8.542,9.07v-6.49h-0.89
	c-4.536,1.512-6.938,4.981-6.938,8.983c0,3.56,2.313,7.562,6.85,8.808c0.267,0.089,0.712,0.356,0.979,0.356h2.67
	c0.355-0.178,0.623-0.356,1.066-0.356c3.291-0.533,7.205-5.248,6.85-8.63h4.715v0.534c-0.178,1.247-0.268,2.403-0.713,3.56
	c-0.443,1.245-1.156,2.49-1.689,3.38c-0.889,1.424-2.668,3.291-4.357,4.181c-0.445,0.267-0.979,0.623-1.514,0.801
	c-0.266,0.178-0.801,0.178-1.066,0.355c-2.225,0.801-2.936,0.801-4.625,0.801c-4.36,0-8.63-1.69-11.565-6.138
	c-0.801-1.156-1.156-2.135-1.689-3.469c-0.356-1.067-0.623-3.202-0.623-3.382v-1.602c0.267-1.066,0.444-2.135,0.623-3.201
	c0.267-0.712,0.533-1.602,0.889-2.313c0.179-0.444,0.534-0.979,0.801-1.423c0.089-0.178,0.267-0.267,0.355-0.355
	c1.868-2.491,3.647-4.003,6.138-4.893c1.156-0.444,2.491-0.623,3.736-0.979v-6.579L39.037,20.689z"/>
</svg>
