<?xml version="1.0" encoding="utf-8"?>
<!-- Generator: Adobe Illustrator 16.0.0, SVG Export Plug-In . SVG Version: 6.00 Build 0)  -->
<!DOCTYPE svg PUBLIC "-//W3C//DTD SVG 1.1//EN" "http://www.w3.org/Graphics/SVG/1.1/DTD/svg11.dtd">
<svg version="1.1" id="Layer_1" xmlns="http://www.w3.org/2000/svg" xmlns:xlink="http://www.w3.org/1999/xlink" x="0px" y="0px"
	 width="234.01px" height="101.355px" viewBox="0 0 234.01 101.355" enable-background="new 0 0 234.01 101.355"
	 xml:space="preserve">
<path opacity="0.1" fill="#010101" enable-background="new    " d="M8.752,96.214c7.752,4.771,55.601,5.144,91.535,5.144
	c0.003,0,0.006,0,0.009,0c47.419,0,119.676-0.688,124.407-2.58c6.726-2.688,9.062-31.062,9.307-34.284
	c1.495-19.729,0.104-42.568-8.286-47.505c-1.888-1.108-7.629-4.486-100.451-4.486c-77.896,0-105.989,2.499-116.686,3.473
	c-2.698,0.243-4.72,3.387-6.179,9.604C-1.78,43.428-1.011,90.206,8.752,96.214z"/>
<g>
	<g>
		<path fill="#9DC64F" d="M224.202,7.073C221.616,5.552,205.325,3,125.272,3C47.446,3,19.516,5.49,8.859,6.458
			C8.17,6.521,6.651,8.13,5.33,13.763c-4.542,19.354-2.32,62.896,4.995,67.396c4.493,2.766,0.272,4.695,89.963,4.696
			c64.412,0,119.727-1.062,123.307-2.366c2.168-0.867,5.959-12.378,7.426-31.727C232.784,28.47,230.044,10.51,224.202,7.073z"/>
		<path fill="#1B6A76" d="M225.724,4.487C223.836,3.378,218.094,0,125.272,0C47.375,0,19.282,2.499,8.587,3.472
			c-2.698,0.243-4.72,3.387-6.179,9.604c-4.188,17.852-3.42,64.629,6.344,70.637c7.752,4.771,55.601,5.144,91.535,5.144
			c0.003,0,0.006,0,0.009,0c47.419,0,119.676-0.688,124.407-2.58c6.726-2.688,9.062-31.062,9.307-34.284
			C235.505,32.263,234.114,9.423,225.724,4.487z M231.021,51.764c-1.467,19.349-5.258,30.857-7.427,31.727
			c-3.579,1.305-58.895,2.366-123.307,2.366c-89.69-0.001-85.47-1.933-89.963-4.696C3.01,76.658,0.788,33.118,5.33,13.763
			C6.651,8.13,8.17,6.521,8.859,6.458C19.516,5.49,47.446,3,125.272,3c80.053,0,96.344,2.552,98.93,4.073
			C230.044,10.51,232.784,28.47,231.021,51.764z"/>
		<path fill="#94B844" d="M223.594,83.49c1.689-0.677,4.365-7.816,6.157-20.093c-20.009,6.629-41.793,6.269-62.975,5.793
			c-35.819-0.801-1.639,0.397-37.459-0.401c-22.882-0.513-45.982-3.053-68.202-8.54c-14.457-3.571-28.781-9.471-39.357-19.952
			c-8.676-8.598-14.41-20.726-14.125-32.76c-0.7,1.041-1.535,2.948-2.304,6.228C0.788,33.118,3.01,76.658,10.325,81.159
			c4.493,2.766,0.272,4.695,89.963,4.696C164.7,85.856,220.015,84.794,223.594,83.49z"/>
		<path fill="#C4D462" d="M187.385,13.818c-0.334-0.921-1.235-1.501-2.114-1.931c-3.812-1.858-8.172-2.142-12.402-2.392
			c-6.018-0.354-12.032-0.709-18.049-1.062c-8.016-0.472-16.071-0.938-24.057-0.094c-5.115,0.542-10.179,1.623-15.038,3.311
			c-1.861,0.646-4.082,2.111-3.514,3.998c0.449,1.492,2.327,1.91,3.878,2.074c22.174,2.332,44.725,4.651,66.635,0.519
			C185.132,17.786,188.218,16.124,187.385,13.818z"/>
		<path fill="#C4D462" d="M217.741,13.662c-0.326-1.35-1.766-2.167-3.133-2.665c-5.521-2.018-11.758-1.324-17.438,0.25
			c-1.204,0.333-2.458,0.742-3.274,1.643c-0.814,0.897-0.969,2.438,0.006,3.182c0.395,0.301,0.897,0.43,1.391,0.544
			c5.414,1.263,11.041,1.713,16.604,1.326c1.404-0.099,2.855-0.265,4.062-0.95C217.163,16.303,218.054,14.958,217.741,13.662z"/>
	</g>
</g>
<g>
	<path fill="#FFFFFF" d="M60.463,46.521c0-6.756,4.235-12.566,12.286-12.566c3.045,0,5.46,0.91,8.016,3.115
		c0.945,0.875,1.05,2.415,0.105,3.396c-0.945,0.84-2.38,0.735-3.22-0.105c-1.436-1.505-2.906-1.925-4.901-1.925
		c-5.391,0-7.981,3.815-7.981,8.086c0,4.34,2.556,8.331,7.981,8.331c1.995,0,3.851-0.806,5.46-2.24
		c1.085-0.841,2.59-0.42,3.221,0.42c0.56,0.77,0.84,2.065-0.385,3.29c-2.45,2.275-5.391,2.73-8.296,2.73
		C64.279,59.052,60.463,53.277,60.463,46.521z"/>
	<path fill="#FFFFFF" d="M85.978,36.685c0-1.155,0.98-2.136,2.205-2.136c1.12,0,2.065,0.98,2.065,2.136v17.536h9.521
		c3.43,0,3.5,4.586,0,4.586H88.183c-1.225,0-2.205-0.875-2.205-2.135V36.685z"/>
	<path fill="#FFFFFF" d="M117.165,59.157c-6.476,0.28-13.196-4.025-13.196-12.601c0-8.611,6.721-12.847,13.196-12.847
		c6.125,0.315,12.532,4.551,12.532,12.847S123.29,59.157,117.165,59.157z M116.78,38.26c-3.92,0-8.191,2.765-8.191,8.296
		c0,5.495,4.271,8.296,8.191,8.296c4.026,0,8.331-2.801,8.331-8.296C125.11,41.025,120.806,38.26,116.78,38.26z"/>
	<path fill="#FFFFFF" d="M133.543,39.836c0.806-6.791,11.062-8.017,15.892-4.306c2.381,1.925-0.141,4.971-2.24,3.431
		c-2.59-1.646-8.471-2.416-9.206,1.225c-0.944,5.741,14.282,2.45,14.036,11.762c-0.244,8.891-13.126,9.101-17.957,5.11
		c-1.154-0.945-1.119-2.485-0.489-3.431c0.909-0.91,1.925-1.225,3.115-0.245c2.87,1.96,10.256,3.431,10.781-1.54
		C147.02,46.661,132.458,49.776,133.543,39.836z"/>
	<path fill="#FFFFFF" d="M158.183,58.807c-1.225,0-2.17-0.945-2.17-2.17V36.755c0-1.26,0.945-2.17,2.17-2.17h12.566
		c3.221,0,3.15,4.551,0,4.551h-10.08v5.25h8.82c3.115,0,3.115,4.586,0,4.586h-8.82v5.25h10.676c3.186,0,3.43,4.586,0,4.586H158.183z
		"/>
</g>
</svg>
