<?xml version="1.0" encoding="utf-8"?>
<!-- Generator: Adobe Illustrator 16.0.0, SVG Export Plug-In . SVG Version: 6.00 Build 0)  -->
<!DOCTYPE svg PUBLIC "-//W3C//DTD SVG 1.1//EN" "http://www.w3.org/Graphics/SVG/1.1/DTD/svg11.dtd">
<svg version="1.1" id="Layer_1" xmlns="http://www.w3.org/2000/svg" xmlns:xlink="http://www.w3.org/1999/xlink" x="0px" y="0px"
	 width="63.75px" height="65.268px" viewBox="0 0 63.75 65.268" enable-background="new 0 0 63.75 65.268" xml:space="preserve">
<g>
	<g opacity="0.1">
		<path d="M62.395,55.903c0,4.703-5.014,9.365-10.069,9.365l-40.889-0.851c-5.056,0-9.155-3.812-9.155-8.516L1.366,20.712
			c0-4.702,5.015-8.514,10.07-8.514h40.889c5.057,0,9.153,3.812,9.153,8.514L62.395,55.903z"/>
	</g>
	<g>
		<path fill="#9CC54F" d="M12.832,56.551c-5.488,0-9.98-4.492-9.98-10.013L2.001,11.383c0-5.371,5.077-10.05,10.865-10.05h38.028
			c5.521,0,10.015,4.492,10.015,10.014l0.851,35.154c0,5.52-5.381,10.9-10.865,10.9L12.832,56.551z"/>
		<path fill="#1B6A76" d="M50.895,2.833c4.701,0,8.515,3.812,8.515,8.514l0.852,35.19c0,4.703-4.663,9.364-9.364,9.364L12.867,55.05
			c-4.701,0-8.514-3.811-8.514-8.514L3.5,11.347c0-4.703,4.664-8.514,9.365-8.514H50.895 M50.895-0.167H12.866
			C6.279-0.167,0.5,5.213,0.5,11.347v0.036l0.001,0.037l0.851,35.157c0.021,6.317,5.159,11.455,11.478,11.474l37.997,0.851
			l0.034,0.001h0.033c6.356,0,12.365-6.009,12.365-12.364v-0.036l-0.001-0.037l-0.851-35.157C62.387,4.977,57.23-0.167,50.895-0.167
			L50.895-0.167z"/>
	</g>
	<path fill="#C3D361" d="M54.117,10.287c-0.277-1.148-1.504-1.846-2.666-2.271C46.75,6.301,41.439,6.891,36.604,8.23
		c-1.024,0.284-2.094,0.633-2.789,1.398c-0.694,0.765-0.823,2.075,0.006,2.709c0.334,0.255,0.765,0.365,1.183,0.462
		c4.608,1.075,9.399,1.458,14.14,1.13c1.194-0.083,2.432-0.225,3.457-0.81C53.623,12.534,54.383,11.389,54.117,10.287z"/>
	<g>
		<g>
			<defs>
				<path id="SVGID_1_" d="M60.26,46.538c0,4.703-4.664,9.364-9.365,9.364l-38.028-0.852c-4.701,0-8.514-3.811-8.514-8.514
					L3.5,11.347c0-4.703,4.664-8.514,9.365-8.514h38.029c4.701,0,8.514,3.812,8.514,8.514L60.26,46.538z"/>
			</defs>
			<clipPath id="SVGID_2_">
				<use xlink:href="#SVGID_1_"  overflow="visible"/>
			</clipPath>
			<path clip-path="url(#SVGID_2_)" fill="#92B744" d="M3.5,11.347c0,0,5.037,17.809,10.997,23.343
				c5.96,5.533,12.771,6.599,22.562,6.599c9.791,0,23.2-6.812,23.2-6.812l1.49,21.426l-7.58,6.031H11.73L-5.51,51.292L3.5,11.347z"
				/>
		</g>
	</g>
</g>
<g>
	<g>
		<g>
			<g>
				<path fill="none" stroke="#166976" stroke-width="2" stroke-miterlimit="10" d="M27.253,30.307
					c-3.106,0-8.492-4.302-8.806-7.918c-0.245-2.846,1.094-4.306,4.118-2.895"/>
				<ellipse fill="none" stroke="#166976" stroke-width="2" stroke-miterlimit="10" cx="24.93" cy="30.876" rx="1.001" ry="0.971"/>
			</g>
			<g>
				<path fill="none" stroke="#166976" stroke-width="2" stroke-miterlimit="10" d="M36.498,30.307c3.106,0,8.492-4.302,8.805-7.918
					c0.245-2.846-1.094-4.306-4.117-2.895"/>
				
					<ellipse fill="none" stroke="#166976" stroke-width="2" stroke-miterlimit="10" cx="38.823" cy="30.876" rx="1.001" ry="0.971"/>
			</g>
		</g>
		<path fill="#166976" d="M42.204,16.178c0,8.996-4.439,18.129-10.328,18.129s-10.328-9.133-10.328-18.129"/>
		<path fill="#166976" d="M42.868,15.983c0,0.403-0.327,0.731-0.73,0.731H21.615c-0.403,0-0.73-0.328-0.73-0.731l0,0
			c0-0.404,0.327-0.732,0.73-0.732h20.522C42.541,15.25,42.868,15.578,42.868,15.983L42.868,15.983z"/>
		<g>
			<rect x="30.549" y="33.594" fill="#166976" width="2.655" height="7.979"/>
			<path fill="#166976" d="M33.886,34.822c0,0.278-0.301,0.503-0.671,0.503h-2.677c-0.371,0-0.671-0.225-0.671-0.503v-0.11
				c0-0.277,0.3-0.503,0.671-0.503h2.677c0.37,0,0.671,0.226,0.671,0.503V34.822z"/>
			<path fill="#166976" d="M33.886,40.681c0,0.277-0.301,0.503-0.671,0.503h-2.677c-0.371,0-0.671-0.226-0.671-0.503V40.57
				c0-0.277,0.3-0.503,0.671-0.503h2.677c0.37,0,0.671,0.226,0.671,0.503V40.681z"/>
		</g>
		<g>
			<path fill="#166976" d="M35.215,42.979c0,0.277-0.225,0.503-0.502,0.503h-5.675c-0.277,0-0.502-0.226-0.502-0.503v-1.34
				c0-0.277,0.225-0.501,0.502-0.501h5.675c0.277,0,0.502,0.224,0.502,0.501V42.979z"/>
			<path fill="#166976" d="M37.005,44.977c0,0.278-0.225,0.502-0.502,0.502h-9.255c-0.276,0-0.501-0.224-0.501-0.502v-1.872
				c0-0.277,0.225-0.502,0.501-0.502h9.255c0.277,0,0.502,0.225,0.502,0.502V44.977z"/>
			<path fill="#166976" d="M39.258,47.489c0,0.277-0.225,0.502-0.502,0.502H24.997c-0.277,0-0.503-0.225-0.503-0.502v-1.982
				c0-0.277,0.226-0.502,0.503-0.502h13.759c0.277,0,0.502,0.225,0.502,0.502V47.489z"/>
		</g>
	</g>
</g>
</svg>
