<?xml version="1.0" encoding="utf-8"?>
<!-- Generator: Adobe Illustrator 16.0.0, SVG Export Plug-In . SVG Version: 6.00 Build 0)  -->
<!DOCTYPE svg PUBLIC "-//W3C//DTD SVG 1.1//EN" "http://www.w3.org/Graphics/SVG/1.1/DTD/svg11.dtd">
<svg version="1.1" id="Layer_1" xmlns="http://www.w3.org/2000/svg" xmlns:xlink="http://www.w3.org/1999/xlink" x="0px" y="0px"
	 width="234.01px" height="101.355px" viewBox="0 0 234.01 101.355" enable-background="new 0 0 234.01 101.355"
	 xml:space="preserve">
<path opacity="0.1" fill="#010101" enable-background="new    " d="M8.752,96.214c7.752,4.771,55.601,5.143,91.535,5.143
	c0.003,0,0.006,0,0.009,0c47.419,0,119.676-0.688,124.407-2.58c6.726-2.688,9.062-31.061,9.307-34.284
	c1.495-19.729,0.104-42.568-8.286-47.505c-1.888-1.108-7.63-4.486-100.451-4.486c-77.896,0-105.99,2.499-116.686,3.472
	c-2.698,0.244-4.72,3.387-6.179,9.605C-1.78,43.428-1.011,90.206,8.752,96.214z"/>
<g>
	<g>
		<path fill="#9DC64F" d="M224.202,7.073C221.616,5.552,205.325,3,125.272,3C47.446,3,19.516,5.49,8.859,6.458
			C8.17,6.521,6.651,8.13,5.33,13.763c-4.542,19.355-2.32,62.896,4.995,67.396c4.493,2.766,0.272,4.695,89.963,4.696
			c64.412,0,119.727-1.062,123.307-2.366c2.168-0.867,5.959-12.378,7.426-31.727C232.784,28.47,230.044,10.51,224.202,7.073z"/>
		<path fill="#1B6A76" d="M225.724,4.487C223.836,3.378,218.094,0,125.272,0C47.375,0,19.282,2.499,8.587,3.472
			c-2.698,0.244-4.72,3.387-6.179,9.605c-4.188,17.851-3.42,64.629,6.344,70.637c7.752,4.771,55.601,5.143,91.535,5.143
			c0.003,0,0.006,0,0.009,0c47.419,0,119.676-0.688,124.407-2.58c6.726-2.688,9.062-31.061,9.307-34.284
			C235.505,32.263,234.114,9.423,225.724,4.487z M231.021,51.764c-1.467,19.349-5.258,30.858-7.427,31.727
			c-3.579,1.305-58.895,2.366-123.307,2.366c-89.69-0.001-85.47-1.932-89.963-4.696C3.01,76.658,0.788,33.118,5.33,13.763
			C6.651,8.13,8.17,6.521,8.859,6.458C19.516,5.49,47.446,3,125.272,3c80.053,0,96.344,2.552,98.93,4.073
			C230.044,10.51,232.784,28.47,231.021,51.764z"/>
		<path fill="#94B844" d="M223.594,83.49c1.689-0.677,4.365-7.816,6.157-20.093c-20.009,6.629-41.793,6.269-62.975,5.793
			c-35.819-0.801-1.639,0.398-37.459-0.401c-22.882-0.513-45.982-3.053-68.202-8.54c-14.457-3.571-28.781-9.471-39.357-19.952
			c-8.676-8.598-14.41-20.726-14.125-32.76c-0.7,1.041-1.535,2.948-2.304,6.227C0.788,33.118,3.01,76.658,10.325,81.159
			c4.493,2.766,0.272,4.695,89.963,4.696C164.7,85.856,220.015,84.794,223.594,83.49z"/>
		<path fill="#C4D462" d="M187.385,13.818c-0.334-0.921-1.235-1.501-2.114-1.931c-3.812-1.858-8.172-2.141-12.403-2.391
			c-6.017-0.354-12.032-0.709-18.048-1.062c-8.016-0.471-16.072-0.938-24.057-0.093c-5.115,0.542-10.179,1.623-15.038,3.31
			c-1.861,0.646-4.082,2.111-3.514,3.998c0.449,1.492,2.327,1.91,3.878,2.074c22.174,2.332,44.725,4.652,66.635,0.519
			C185.132,17.786,188.218,16.124,187.385,13.818z"/>
		<path fill="#C4D462" d="M217.741,13.662c-0.326-1.35-1.766-2.167-3.133-2.665c-5.521-2.018-11.758-1.324-17.438,0.25
			c-1.204,0.333-2.458,0.742-3.274,1.642c-0.815,0.898-0.969,2.438,0.006,3.182c0.394,0.301,0.897,0.43,1.39,0.544
			c5.414,1.263,11.041,1.713,16.604,1.326c1.404-0.098,2.855-0.264,4.062-0.95C217.163,16.303,218.053,14.958,217.741,13.662z"/>
	</g>
</g>
<g enable-background="new    ">
	<path fill="#FFFFFF" d="M109.738,57.278c-6.476,0.28-13.196-4.025-13.196-12.601c0-8.611,6.721-12.847,13.196-12.847
		c6.125,0.315,12.531,4.551,12.531,12.847S115.863,57.278,109.738,57.278z M109.353,36.381c-3.92,0-8.191,2.765-8.191,8.296
		c0,5.495,4.271,8.296,8.191,8.296c4.025,0,8.331-2.801,8.331-8.296C117.684,39.146,113.378,36.381,109.353,36.381z"/>
	<path fill="#FFFFFF" d="M134.481,46.217l-3.324,3.675v4.901c0,2.905-4.621,2.939-4.621,0c0-6.721,0-13.231,0-19.987
		c0-2.976,4.621-3.081,4.621,0v8.891l10.115-10.431c1.226-1.155,2.451-0.875,3.326,0c0.979,0.944,0.979,2.17,0,3.115
		c-2.066,2.45-4.48,4.62-6.721,7.07l8.19,9.906c2.101,2.905-2.38,5.006-3.78,2.766L134.481,46.217z"/>
</g>
</svg>
