<?xml version="1.0" encoding="utf-8"?>
<!-- Generator: Adobe Illustrator 24.0.2, SVG Export Plug-In . SVG Version: 6.00 Build 0)  -->
<svg version="1.1" id="Layer_1" xmlns="http://www.w3.org/2000/svg" xmlns:xlink="http://www.w3.org/1999/xlink" x="0px" y="0px"
	 viewBox="0 0 63.8 65.3" style="enable-background:new 0 0 63.8 65.3;" xml:space="preserve">
<style type="text/css">
	.st0{opacity:0.1;}
	.st1{fill:#9CC54F;}
	.st2{fill:#1B6A76;}
	.st3{fill:#C3D361;}
	.st4{clip-path:url(#SVGID_2_);fill:#92B744;}
	.st5{fill:none;stroke:#166976;stroke-width:2;stroke-miterlimit:10;}
	.st6{fill:#166976;}
</style>
<g>
	<g class="st0">
		<path d="M62.4,55.9c0,4.7-5,9.4-10.1,9.4l-40.9-0.9c-5.1,0-9.2-3.8-9.2-8.5L1.4,20.7c0-4.7,5-8.5,10.1-8.5h40.9
			c5.1,0,9.2,3.8,9.2,8.5L62.4,55.9z"/>
	</g>
	<g>
		<path class="st1" d="M12.8,56.6c-5.5,0-10-4.5-10-10L2,11.4C2,6,7.1,1.3,12.9,1.3h38c5.5,0,10,4.5,10,10l0.9,35.2
			c0,5.5-5.4,10.9-10.9,10.9L12.8,56.6z"/>
		<path class="st2" d="M50.9,2.8c4.7,0,8.5,3.8,8.5,8.5l0.9,35.2c0,4.7-4.7,9.4-9.4,9.4l-38-0.9c-4.7,0-8.5-3.8-8.5-8.5L3.5,11.3
			c0-4.7,4.7-8.5,9.4-8.5L50.9,2.8 M50.9-0.2h-38C6.3-0.2,0.5,5.2,0.5,11.3v0l0,0l0.9,35.2c0,6.3,5.2,11.5,11.5,11.5l38,0.9l0,0h0
			c6.4,0,12.4-6,12.4-12.4v0l0,0l-0.9-35.2C62.4,5,57.2-0.2,50.9-0.2L50.9-0.2z"/>
	</g>
	<path class="st3" d="M54.1,10.3c-0.3-1.1-1.5-1.8-2.7-2.3c-4.7-1.7-10-1.1-14.8,0.2c-1,0.3-2.1,0.6-2.8,1.4c-0.7,0.8-0.8,2.1,0,2.7
		c0.3,0.3,0.8,0.4,1.2,0.5c4.6,1.1,9.4,1.5,14.1,1.1c1.2-0.1,2.4-0.2,3.5-0.8C53.6,12.5,54.4,11.4,54.1,10.3z"/>
	<g>
		<g>
			<g>
				<defs>
					<path id="SVGID_1_" d="M60.3,46.5c0,4.7-4.7,9.4-9.4,9.4l-38-0.9c-4.7,0-8.5-3.8-8.5-8.5L3.5,11.3c0-4.7,4.7-8.5,9.4-8.5h38
						c4.7,0,8.5,3.8,8.5,8.5L60.3,46.5z"/>
				</defs>
				<clipPath id="SVGID_2_">
					<use xlink:href="#SVGID_1_"  style="overflow:visible;"/>
				</clipPath>
				<path class="st4" d="M3.5,11.3c0,0,5,17.8,11,23.3c6,5.5,12.8,6.6,22.6,6.6s23.2-6.8,23.2-6.8l1.5,21.4l-7.6,6H11.7L-5.5,51.3
					L3.5,11.3z"/>
			</g>
		</g>
	</g>
</g>
<g>
	<g>
		<g>
			<g>
				<path class="st5" d="M27.3,30.3c-3.1,0-8.5-4.3-8.8-7.9c-0.2-2.8,1.1-4.3,4.1-2.9"/>
				<ellipse class="st5" cx="24.9" cy="30.9" rx="1" ry="1"/>
			</g>
			<g>
				<path class="st5" d="M36.5,30.3c3.1,0,8.5-4.3,8.8-7.9c0.2-2.8-1.1-4.3-4.1-2.9"/>
				<ellipse class="st5" cx="38.8" cy="30.9" rx="1" ry="1"/>
			</g>
		</g>
		<path class="st6" d="M42.2,16.2c0,9-4.4,18.1-10.3,18.1s-10.3-9.1-10.3-18.1"/>
		<path class="st6" d="M42.9,16c0,0.4-0.3,0.7-0.7,0.7H21.6c-0.4,0-0.7-0.3-0.7-0.7l0,0c0-0.4,0.3-0.7,0.7-0.7h20.5
			C42.5,15.3,42.9,15.6,42.9,16L42.9,16z"/>
		<g>
			<rect x="30.5" y="33.6" class="st6" width="2.7" height="8"/>
			<path class="st6" d="M33.9,34.8c0,0.3-0.3,0.5-0.7,0.5h-2.7c-0.4,0-0.7-0.2-0.7-0.5v-0.1c0-0.3,0.3-0.5,0.7-0.5h2.7
				c0.4,0,0.7,0.2,0.7,0.5V34.8z"/>
			<path class="st6" d="M33.9,40.7c0,0.3-0.3,0.5-0.7,0.5h-2.7c-0.4,0-0.7-0.2-0.7-0.5v-0.1c0-0.3,0.3-0.5,0.7-0.5h2.7
				c0.4,0,0.7,0.2,0.7,0.5V40.7z"/>
		</g>
		<g>
			<path class="st6" d="M35.2,43c0,0.3-0.2,0.5-0.5,0.5H29c-0.3,0-0.5-0.2-0.5-0.5v-1.3c0-0.3,0.2-0.5,0.5-0.5h5.7
				c0.3,0,0.5,0.2,0.5,0.5V43z"/>
			<path class="st6" d="M37,45c0,0.3-0.2,0.5-0.5,0.5h-9.3c-0.3,0-0.5-0.2-0.5-0.5v-1.9c0-0.3,0.2-0.5,0.5-0.5h9.3
				c0.3,0,0.5,0.2,0.5,0.5V45z"/>
			<path class="st6" d="M39.3,47.5c0,0.3-0.2,0.5-0.5,0.5H25c-0.3,0-0.5-0.2-0.5-0.5v-2c0-0.3,0.2-0.5,0.5-0.5h13.8
				c0.3,0,0.5,0.2,0.5,0.5V47.5z"/>
		</g>
	</g>
</g>
</svg>
