<?xml version="1.0" encoding="utf-8"?>
<!-- Generator: Adobe Illustrator 16.0.0, SVG Export Plug-In . SVG Version: 6.00 Build 0)  -->
<!DOCTYPE svg PUBLIC "-//W3C//DTD SVG 1.1//EN" "http://www.w3.org/Graphics/SVG/1.1/DTD/svg11.dtd">
<svg version="1.1" id="Layer_1" xmlns="http://www.w3.org/2000/svg" xmlns:xlink="http://www.w3.org/1999/xlink" x="0px" y="0px"
	 width="234.535px" height="101.355px" viewBox="0 0 234.535 101.355" enable-background="new 0 0 234.535 101.355"
	 xml:space="preserve">
<path opacity="0.1" enable-background="new    " d="M8.752,96.214c7.752,4.771,55.601,5.144,91.535,5.144c0.003,0,0.006,0,0.009,0
	c47.418,0,119.677-0.688,124.407-2.58c6.727-2.688,9.062-31.061,9.307-34.285c1.496-19.729,0.105-42.568-8.285-47.504
	c-1.889-1.109-7.631-4.486-100.451-4.486c-77.896,0-105.99,2.499-116.686,3.472c-2.698,0.244-4.72,3.387-6.179,9.605
	C-1.78,43.427-1.011,90.206,8.752,96.214z"/>
<g>
	<g>
		<path fill="#9DC64F" d="M224.203,7.073C221.617,5.552,205.326,3,125.271,3C47.446,3,19.516,5.49,8.859,6.458
			C8.17,6.521,6.651,8.13,5.33,13.763c-4.542,19.354-2.32,62.896,4.995,67.396c4.493,2.766,0.272,4.695,89.963,4.696
			c64.413,0,119.728-1.062,123.308-2.366c2.168-0.867,5.959-12.378,7.426-31.727C232.785,28.469,230.044,10.51,224.203,7.073z"/>
		<path fill="#166976" d="M225.723,4.487C223.835,3.377,218.093,0,125.271,0C47.375,0,19.282,2.499,8.587,3.471
			c-2.698,0.244-4.72,3.387-6.179,9.605c-4.188,17.851-3.42,64.629,6.344,70.637c7.752,4.771,55.601,5.144,91.535,5.144
			c0.003,0,0.006,0,0.009,0c47.418,0,119.677-0.688,124.407-2.58c6.727-2.688,9.062-31.061,9.307-34.285
			C235.505,32.262,234.115,9.423,225.723,4.487z M231.02,51.764c-1.467,19.349-5.258,30.857-7.427,31.727
			c-3.579,1.305-58.895,2.366-123.306,2.366c-89.69-0.001-85.47-1.933-89.963-4.696C3.01,76.658,0.788,33.118,5.33,13.763
			C6.651,8.13,8.17,6.521,8.859,6.458C19.516,5.49,47.446,3,125.271,3c80.055,0,96.346,2.552,98.932,4.073
			C230.044,10.51,232.785,28.469,231.02,51.764z"/>
		<path fill="#92B746" d="M223.593,83.49c1.689-0.677,4.365-7.816,6.158-20.093c-20.01,6.629-41.793,6.269-62.976,5.793
			c-35.819-0.801-1.639,0.397-37.459-0.401c-22.882-0.513-45.982-3.053-68.202-8.54c-14.457-3.571-28.781-9.471-39.357-19.952
			c-8.676-8.598-14.41-20.726-14.125-32.76c-0.7,1.041-1.535,2.948-2.304,6.228c-4.54,19.354-2.318,62.894,4.997,67.395
			c4.493,2.766,0.272,4.695,89.963,4.696C164.701,85.856,220.014,84.794,223.593,83.49z"/>
		<path fill="#C4D461" d="M187.384,13.818c-0.334-0.921-1.233-1.501-2.114-1.931c-3.812-1.858-8.17-2.142-12.402-2.391
			c-6.018-0.354-12.031-0.71-18.049-1.062c-8.014-0.472-16.07-0.938-24.055-0.094c-5.115,0.542-10.181,1.623-15.039,3.311
			c-1.861,0.646-4.082,2.111-3.514,3.997c0.449,1.493,2.327,1.911,3.878,2.074c22.175,2.333,44.726,4.651,66.634,0.519
			C185.132,17.786,188.218,16.124,187.384,13.818z"/>
		<path fill="#C4D461" d="M217.742,13.662c-0.326-1.349-1.768-2.167-3.133-2.666c-5.521-2.017-11.76-1.323-17.439,0.25
			c-1.203,0.333-2.457,0.743-3.273,1.643c-0.815,0.898-0.969,2.438,0.006,3.182c0.394,0.301,0.896,0.43,1.39,0.543
			c5.414,1.264,11.041,1.714,16.604,1.327c1.404-0.099,2.855-0.265,4.062-0.95C217.162,16.302,218.052,14.958,217.742,13.662z"/>
	</g>
</g>
<g enable-background="new    ">
	<path fill="#FFFFFF" d="M59.565,54.653c0,3.046-4.656,3.149-4.656,0.07V34.841c0-1.226,0.945-2.136,2.1-2.136h9.311
		c8.891,0,10.711,11.901,3.291,14.877l4.655,5.67c1.82,2.695-1.82,5.286-3.92,2.626l-5.285-7.562h-5.496V54.653z M59.565,44.291
		h6.755c4.551,0,4.831-7.351,0-7.351h-6.755V44.291z"/>
	<path fill="#FFFFFF" d="M80.704,56.927c-1.225,0-2.17-0.944-2.17-2.17V34.875c0-1.26,0.945-2.17,2.17-2.17H93.27
		c3.22,0,3.15,4.551,0,4.551H83.189v5.25h8.821c3.115,0,3.115,4.586,0,4.586h-8.821v5.25h10.676c3.185,0,3.43,4.586,0,4.586H80.704z
		"/>
	<path fill="#FFFFFF" d="M108.005,55.353l-9.241-19.357c-1.365-2.765,2.765-5.04,4.306-2.135l3.115,7.036l4.025,9.24l3.955-9.24
		l3.116-7.036c1.4-2.66,5.461-0.98,4.271,1.925l-8.926,19.567C111.82,57.558,109.335,58.083,108.005,55.353z"/>
	<path fill="#FFFFFF" d="M127.184,56.927c-1.226,0-2.17-0.944-2.17-2.17V34.875c0-1.26,0.944-2.17,2.17-2.17h12.565
		c3.221,0,3.149,4.551,0,4.551h-10.08v5.25h8.819c3.115,0,3.115,4.586,0,4.586h-8.819v5.25h10.676c3.187,0,3.431,4.586,0,4.586
		H127.184z"/>
	<path fill="#FFFFFF" d="M146.083,56.927c-1.121-0.63-1.819-1.891-1.121-3.359l10.047-19.637c0.945-1.855,3.466-1.927,4.341,0
		l9.87,19.637c1.437,2.729-2.8,4.899-4.061,2.17l-1.539-3.08h-12.917l-1.506,3.08C148.639,56.927,147.343,57.173,146.083,56.927z
		 M161.134,48.037l-3.954-8.646l-4.306,8.646H161.134z"/>
	<path fill="#FFFFFF" d="M172.402,34.806c0-1.155,0.979-2.137,2.205-2.137c1.121,0,2.065,0.98,2.065,2.137v17.535h9.521
		c3.431,0,3.5,4.586,0,4.586h-11.586c-1.227,0-2.205-0.875-2.205-2.135V34.806L172.402,34.806z"/>
</g>
</svg>
