<?xml version="1.0" encoding="utf-8"?>
<!-- Generator: Adobe Illustrator 16.0.0, SVG Export Plug-In . SVG Version: 6.00 Build 0)  -->
<!DOCTYPE svg PUBLIC "-//W3C//DTD SVG 1.1//EN" "http://www.w3.org/Graphics/SVG/1.1/DTD/svg11.dtd">
<svg version="1.1" id="Layer_1" xmlns="http://www.w3.org/2000/svg" xmlns:xlink="http://www.w3.org/1999/xlink" x="0px" y="0px"
	 width="447.52px" height="202.754px" viewBox="0 0 447.52 202.754" enable-background="new 0 0 447.52 202.754"
	 xml:space="preserve">
<g>
	<g>
		<g>
			<g>
				<g>
					<g>
						<path fill="#FBBE15" d="M130.471,22.378c-5,5.474-7.775,6.201-9.737,4.712c-1.964-1.491-2.275-4.792,3.136-10.717
							c5.413-5.926,12.73-7.731,13.489-6.843C138.116,10.417,135.471,16.903,130.471,22.378z"/>
						<path fill="#FFCC05" d="M115.667,27.732c-0.413,6.693-2.225,9.202-4.77,10.015c-2.549,0.814-4.95-0.433-4.823-7.365
							c0.126-6.931,4.733-13.73,6.057-14.016C113.453,16.082,116.08,21.04,115.667,27.732z"/>
						<path fill="#FBBE15" d="M121.691,32.02c-5.992,2.28-7.439,5.473-6.831,8.014c0.608,2.543,2.922,3.464,8.563,1.12
							c5.64-2.344,9.741-6.871,9.595-8.049C132.872,31.929,127.682,29.741,121.691,32.02z"/>
						<path fill="#FFCC05" d="M106.393,43.146c0.684,6.58-0.708,9.298-3.086,10.463c-2.38,1.166-4.935,0.292-5.917-6.491
							c-0.981-6.783,2.421-14.061,3.67-14.528C102.309,32.123,105.709,36.569,106.393,43.146z"/>
						<path fill="#FBBE15" d="M113.004,46.456c-5.515,3.085-6.437,6.414-5.435,8.809c1.001,2.396,3.435,2.953,8.61-0.154
							c5.176-3.107,8.451-8.101,8.114-9.225C123.957,44.762,118.517,43.373,113.004,46.456z"/>
						<path fill="#FFCC05" d="M99.713,59.549c1.699,6.335,0.74,9.202-1.431,10.696c-2.174,1.498-4.825,1.013-6.836-5.489
							c-2.01-6.499,0.2-14.114,1.356-14.751C93.957,49.367,98.014,53.211,99.713,59.549z"/>
						<path fill="#FBBE15" d="M106.749,61.816c-4.955,3.825-5.357,7.224-4.004,9.424c1.354,2.202,3.845,2.387,8.477-1.419
							c4.63-3.804,7.075-9.166,6.564-10.215C117.277,58.559,111.705,57.991,106.749,61.816z"/>
						<path fill="#FFCC05" d="M95.635,76.606c2.635,5.974,2.112,8.939,0.188,10.735c-1.924,1.797-4.618,1.711-7.579-4.386
							c-2.961-6.099-1.932-13.899-0.886-14.696C88.402,67.465,92.999,70.633,95.635,76.606z"/>
						<path fill="#FBBE15" d="M102.93,77.79c-4.321,4.493-4.213,7.899-2.546,9.867c1.667,1.968,4.159,1.775,8.168-2.659
							c4.009-4.435,5.612-10.055,4.947-11.009C112.836,73.038,107.249,73.298,102.93,77.79z"/>
						<path fill="#FFCC05" d="M94.15,94.005c3.493,5.5,3.415,8.517,1.778,10.579c-1.637,2.062-4.313,2.378-8.145-3.206
							c-3.832-5.585-3.97-13.422-3.056-14.363S90.658,88.506,94.15,94.005z"/>
						<path fill="#FBBE15" d="M101.541,94.084c-3.606,5.077-2.996,8.432-1.056,10.129c1.94,1.696,4.376,1.13,7.684-3.852
							s4.054-10.756,3.256-11.597C110.628,87.924,105.146,89.009,101.541,94.084z"/>
						<path fill="#FFCC05" d="M95.264,111.428c4.27,4.926,4.644,7.934,3.335,10.225c-1.309,2.293-3.909,3.004-8.532-1.963
							s-5.925-12.703-5.159-13.773C85.672,104.85,90.994,106.501,95.264,111.428z"/>
						<path fill="#FBBE15" d="M102.582,110.4c-2.812,5.568-1.706,8.81,0.468,10.203c2.171,1.392,4.495,0.465,7.022-4.972
							c2.527-5.438,2.413-11.264,1.496-11.979C110.655,102.941,105.393,104.834,102.582,110.4z"/>
						<path fill="#FFCC05" d="M98.972,128.555c4.97,4.262,5.803,7.202,4.862,9.684c-0.942,2.484-3.41,3.574-8.746-0.687
							c-5.333-4.257-7.782-11.752-7.187-12.926C88.497,123.452,94.005,124.295,98.972,128.555z"/>
						<path fill="#FBBE15" d="M106.055,126.439c-1.938,5.959-0.344,9.022,2.021,10.088c2.366,1.066,4.517-0.205,6.184-5.998
							c1.666-5.79,0.676-11.566-0.334-12.137C112.916,117.822,107.992,120.482,106.055,126.439z"/>
						<path fill="#FFCC05" d="M105.279,145.068c5.589,3.515,6.89,6.332,6.357,8.953c-0.534,2.623-2.812,4.076-8.781,0.608
							s-9.559-10.58-9.15-11.837C94.114,141.537,99.69,141.555,105.279,145.068z"/>
						<path fill="#FBBE15" d="M111.962,141.907c-0.984,6.233,1.088,9.06,3.606,9.776c2.519,0.717,4.443-0.875,5.17-6.912
							s-1.153-11.647-2.241-12.064C117.411,132.29,112.946,135.675,111.962,141.907z"/>
						<path fill="#FFCC05" d="M114.182,160.645c6.13,2.696,7.909,5.332,7.824,8.041c-0.084,2.705-2.119,4.496-8.642,1.896
							c-6.522-2.601-11.242-9.187-11.04-10.507C102.525,158.754,108.051,157.945,114.182,160.645z"/>
						<path fill="#FBBE15" d="M120.3,156.493c0.048,6.387,2.593,8.922,5.226,9.274c2.629,0.351,4.268-1.533,3.977-7.692
							s-3.062-11.494-4.211-11.751C124.145,146.064,120.252,150.105,120.3,156.493z"/>
						<path fill="#FFCC05" d="M125.684,174.959c6.59,1.814,8.854,4.215,9.256,6.95c0.403,2.737-1.328,4.827-8.326,3.155
							c-6.997-1.672-12.832-7.59-12.856-8.947C113.733,174.764,119.094,173.145,125.684,174.959z"/>
						<path fill="#FBBE15" d="M131.071,169.9c1.157,6.406,4.168,8.593,6.873,8.565c2.705-0.026,3.998-2.159,2.608-8.312
							c-1.389-6.149-5.065-11.102-6.255-11.192C133.111,158.872,129.914,163.495,131.071,169.9z"/>
					</g>
				</g>
				<g>
					<g>
						<path fill="#FBBE15" d="M317.047,22.378c4.999,5.473,7.775,6.202,9.739,4.711c1.964-1.49,2.272-4.793-3.138-10.718
							c-5.414-5.926-12.729-7.73-13.486-6.843C309.402,10.418,312.047,16.904,317.047,22.378z"/>
						<path fill="#FFCC05" d="M331.854,27.732c0.414,6.692,2.225,9.203,4.77,10.016c2.548,0.814,4.95-0.436,4.82-7.366
							c-0.129-6.929-4.732-13.731-6.055-14.018C334.066,16.078,331.439,21.042,331.854,27.732z"/>
						<path fill="#FBBE15" d="M325.829,32.019c5.991,2.28,7.438,5.474,6.83,8.015c-0.607,2.541-2.921,3.462-8.562,1.119
							c-5.643-2.344-9.744-6.871-9.598-8.047C314.645,31.929,319.838,29.739,325.829,32.019z"/>
						<path fill="#FFCC05" d="M341.129,43.147c-0.682,6.58,0.706,9.295,3.084,10.461c2.38,1.166,4.938,0.292,5.917-6.49
							c0.979-6.781-2.424-14.062-3.672-14.53C345.21,32.121,341.811,36.57,341.129,43.147z"/>
						<path fill="#FBBE15" d="M334.514,46.456c5.514,3.084,6.438,6.414,5.437,8.809c-1,2.393-3.433,2.952-8.609-0.154
							c-5.178-3.107-8.455-8.1-8.118-9.224C323.561,44.761,329.002,43.372,334.514,46.456z"/>
						<path fill="#FFCC05" d="M347.809,59.548c-1.697,6.334-0.742,9.203,1.43,10.697c2.173,1.498,4.826,1.015,6.837-5.489
							c2.009-6.499-0.202-14.114-1.356-14.752C353.564,49.366,349.506,53.212,347.809,59.548z"/>
						<path fill="#FBBE15" d="M340.77,61.816c4.955,3.825,5.357,7.224,4.004,9.424c-1.353,2.2-3.844,2.387-8.477-1.418
							c-4.631-3.804-7.076-9.167-6.566-10.215C330.24,58.558,335.812,57.99,340.77,61.816z"/>
						<path fill="#FFCC05" d="M351.887,76.606c-2.634,5.974-2.115,8.939-0.191,10.735c1.925,1.797,4.621,1.711,7.58-4.385
							c2.959-6.097,1.931-13.899,0.887-14.696C359.119,67.464,354.521,70.634,351.887,76.606z"/>
						<path fill="#FBBE15" d="M344.59,77.791c4.32,4.492,4.212,7.898,2.544,9.867c-1.666,1.966-4.159,1.775-8.169-2.659
							c-4.013-4.435-5.609-10.056-4.947-11.009C334.682,73.037,340.271,73.298,344.59,77.791z"/>
						<path fill="#FFCC05" d="M353.372,94.005c-3.492,5.5-3.417,8.515-1.781,10.578s4.315,2.38,8.146-3.204
							s3.971-13.423,3.059-14.364C361.881,86.074,356.861,88.506,353.372,94.005z"/>
						<path fill="#FBBE15" d="M345.979,94.085c3.604,5.076,2.996,8.431,1.056,10.128c-1.938,1.695-4.375,1.131-7.685-3.85
							c-3.311-4.982-4.057-10.759-3.259-11.599C336.889,87.921,342.373,89.01,345.979,94.085z"/>
						<path fill="#FFCC05" d="M352.258,111.428c-4.27,4.926-4.646,7.934-3.337,10.225c1.31,2.293,3.913,3.005,8.533-1.961
							c4.62-4.967,5.923-12.707,5.159-13.776C361.852,104.85,356.527,106.501,352.258,111.428z"/>
						<path fill="#FBBE15" d="M344.938,110.402c2.811,5.567,1.707,8.807-0.468,10.201c-2.17,1.393-4.493,0.465-7.021-4.972
							c-2.53-5.438-2.413-11.267-1.5-11.979C336.859,102.941,342.125,104.834,344.938,110.402z"/>
						<path fill="#FFCC05" d="M348.55,128.553c-4.969,4.264-5.805,7.203-4.864,9.684c0.942,2.482,3.41,3.578,8.746-0.685
							c5.332-4.257,7.782-11.754,7.188-12.927C359.025,123.45,353.516,124.293,348.55,128.553z"/>
						<path fill="#FBBE15" d="M341.464,126.439c1.938,5.957,0.343,9.022-2.021,10.088s-4.516-0.207-6.184-5.998
							c-1.668-5.79-0.679-11.566,0.331-12.137C334.602,117.82,339.527,120.484,341.464,126.439z"/>
						<path fill="#FFCC05" d="M342.243,145.068c-5.587,3.516-6.892,6.33-6.359,8.951c0.534,2.623,2.814,4.08,8.781,0.611
							c5.967-3.467,9.558-10.582,9.149-11.839C353.407,141.536,347.83,141.555,342.243,145.068z"/>
						<path fill="#FBBE15" d="M335.559,141.907c0.984,6.233-1.088,9.059-3.605,9.776c-2.518,0.717-4.442-0.873-5.171-6.91
							c-0.729-6.037,1.149-11.65,2.237-12.068C330.105,132.287,334.574,135.673,335.559,141.907z"/>
						<path fill="#FFCC05" d="M333.34,160.643c-6.129,2.698-7.908,5.334-7.824,8.041c0.084,2.705,2.118,4.498,8.641,1.896
							c6.52-2.602,11.24-9.186,11.04-10.506C344.995,158.755,339.468,157.943,333.34,160.643z"/>
						<path fill="#FBBE15" d="M327.221,156.49c-0.048,6.387-2.591,8.923-5.227,9.275c-2.629,0.351-4.266-1.533-3.977-7.69
							c0.291-6.159,3.062-11.496,4.209-11.755C323.374,146.062,327.27,150.104,327.221,156.49z"/>
						<path fill="#FFCC05" d="M321.839,174.96c-6.589,1.815-8.854,4.213-9.257,6.949c-0.403,2.737,1.325,4.829,8.322,3.157
							c6.994-1.672,12.832-7.592,12.856-8.947C333.787,174.766,328.427,173.145,321.839,174.96z"/>
						<path fill="#FBBE15" d="M316.45,169.898c-1.158,6.406-4.171,8.593-6.875,8.565c-2.701-0.026-3.995-2.159-2.607-8.31
							s5.066-11.103,6.253-11.193C314.406,158.87,317.607,163.492,316.45,169.898z"/>
					</g>
				</g>
			</g>
			<g>
				<g>
					<g>
						<path fill="#FFD535" stroke="#FBBE15" stroke-width="5" stroke-miterlimit="10" d="M325.551,97.25
							c0,52.059-45.564,94.25-101.79,94.25s-101.79-42.191-101.79-94.25c0-52.057,45.564-94.25,101.79-94.25
							S325.551,45.193,325.551,97.25z"/>
						<g>
							
								<path fill="none" stroke="#FBBE15" stroke-width="3" stroke-linecap="round" stroke-linejoin="round" stroke-miterlimit="10" d="
								M297.295,142.96c-15.898,21.888-42.896,36.287-73.534,36.287s-57.637-14.399-73.537-36.289"/>
							
								<path fill="none" stroke="#FBBE15" stroke-width="3" stroke-linecap="round" stroke-linejoin="round" stroke-miterlimit="10" d="
								M135.4,102.746c-0.13-1.817-0.196-3.649-0.196-5.496c0-45.29,39.641-81.998,88.557-81.998
								c48.916,0,88.558,36.708,88.558,81.998c0,1.847-0.066,3.679-0.196,5.496"/>
						</g>
						<circle fill="#F7B031" cx="223.76" cy="64.106" r="34.684"/>
					</g>
				</g>
				<g>
					<g>
						<polygon fill="#F7B031" points="159.665,88.9 161.258,79.687 154.571,73.151 163.825,71.82 167.974,63.441 172.1,71.831 
							181.351,73.187 174.647,79.705 176.214,88.922 167.945,84.56 						"/>
					</g>
					<g>
						<polygon fill="#F7B031" points="271.257,88.9 272.85,79.687 266.163,73.151 275.417,71.82 279.564,63.441 283.691,71.831 
							292.943,73.187 286.239,79.705 287.807,88.922 279.537,84.56 						"/>
					</g>
				</g>
			</g>
		</g>
	</g>
	<g>
		<g>
			<polyline fill="#156B7F" points="57.586,177.132 38.918,151.5 112.664,151.5 112.664,202.754 38.918,202.754 57.586,177.132 			
				"/>
			<polyline fill="#156B7F" points="389.938,177.132 408.6,151.5 334.854,151.5 334.854,202.754 408.6,202.754 389.938,177.132 			
				"/>
			<rect x="85.16" y="142.754" fill="#0FACB6" width="277.203" height="51.253"/>
		</g>
		<g>
			<g>
				<path fill="#FFFFFF" d="M99.752,175.997c6.449,0,6.449-10,0-10C93.303,165.997,93.303,175.997,99.752,175.997L99.752,175.997z"
					/>
			</g>
			<g>
				<path fill="#FFFFFF" d="M347.752,175.997c6.448,0,6.448-10,0-10C341.305,165.997,341.304,175.997,347.752,175.997
					L347.752,175.997z"/>
			</g>
		</g>
		<g>
			<polygon fill="#FBBE15" points="6.58,189.184 8.638,177.281 0,168.84 11.955,167.119 17.314,156.295 22.646,167.133 
				34.596,168.886 25.936,177.305 27.961,189.211 17.278,183.576 			"/>
			<polygon fill="#FBBE15" points="419.504,189.184 421.562,177.281 412.924,168.84 424.879,167.119 430.238,156.295 
				435.57,167.133 447.52,168.886 438.859,177.305 440.885,189.211 430.203,183.576 			"/>
		</g>
	</g>
	<g enable-background="new    ">
		<path fill="#FFFFFF" d="M126.936,162.867c0.69-5.819,9.48-6.869,13.62-3.689c2.04,1.65-0.12,4.26-1.92,2.939
			c-2.22-1.409-7.26-2.069-7.89,1.051c-0.81,4.92,12.239,2.1,12.029,10.079c-0.21,7.62-11.25,7.8-15.389,4.38
			c-0.99-0.81-0.96-2.13-0.42-2.939c0.78-0.78,1.65-1.051,2.67-0.21c2.46,1.68,8.79,2.939,9.24-1.32
			C138.485,168.718,126.006,171.388,126.936,162.867z"/>
		<path fill="#FFFFFF" d="M160.355,160.348c0-2.67,3.93-2.88,3.93,0v10.859c0,11.22-18.089,11.22-18.089,0v-10.859
			c0-2.7,3.93-2.82,3.93,0v10.859c0,5.91,10.229,6.27,10.229,0V160.348z"/>
		<path fill="#FFFFFF" d="M167.706,168.598c0-5.79,3.63-10.77,10.529-10.77c2.61,0,4.68,0.779,6.87,2.67
			c0.81,0.75,0.9,2.069,0.09,2.909c-0.81,0.721-2.04,0.63-2.76-0.09c-1.23-1.29-2.49-1.649-4.2-1.649c-4.62,0-6.84,3.27-6.84,6.93
			c0,3.72,2.19,7.14,6.84,7.14c1.71,0,3.3-0.69,4.68-1.92c0.93-0.72,2.22-0.36,2.76,0.359c0.48,0.66,0.72,1.771-0.33,2.82
			c-2.1,1.95-4.62,2.34-7.11,2.34C170.975,179.337,167.706,174.387,167.706,168.598z"/>
		<path fill="#FFFFFF" d="M188.826,168.598c0-5.79,3.63-10.77,10.529-10.77c2.61,0,4.68,0.779,6.87,2.67
			c0.81,0.75,0.9,2.069,0.09,2.909c-0.81,0.721-2.04,0.63-2.76-0.09c-1.23-1.29-2.49-1.649-4.2-1.649c-4.62,0-6.84,3.27-6.84,6.93
			c0,3.72,2.19,7.14,6.84,7.14c1.71,0,3.3-0.69,4.68-1.92c0.93-0.72,2.22-0.36,2.76,0.359c0.48,0.66,0.72,1.771-0.33,2.82
			c-2.1,1.95-4.62,2.34-7.11,2.34C192.095,179.337,188.826,174.387,188.826,168.598z"/>
		<path fill="#FFFFFF" d="M212.525,179.127c-1.05,0-1.86-0.81-1.86-1.86v-17.039c0-1.08,0.81-1.859,1.86-1.859h10.77
			c2.76,0,2.7,3.899,0,3.899h-8.64v4.5h7.56c2.67,0,2.67,3.93,0,3.93h-7.56v4.5h9.15c2.73,0,2.939,3.93,0,3.93H212.525z"/>
		<path fill="#FFFFFF" d="M228.785,162.867c0.689-5.819,9.479-6.869,13.619-3.689c2.04,1.65-0.12,4.26-1.92,2.939
			c-2.22-1.409-7.26-2.069-7.89,1.051c-0.81,4.92,12.239,2.1,12.029,10.079c-0.21,7.62-11.249,7.8-15.39,4.38
			c-0.99-0.81-0.959-2.13-0.42-2.939c0.78-0.78,1.65-1.051,2.67-0.21c2.461,1.68,8.79,2.939,9.24-1.32
			C240.334,168.718,227.855,171.388,228.785,162.867z"/>
		<path fill="#FFFFFF" d="M247.715,162.867c0.689-5.819,9.48-6.869,13.619-3.689c2.041,1.65-0.119,4.26-1.92,2.939
			c-2.219-1.409-7.26-2.069-7.889,1.051c-0.811,4.92,12.238,2.1,12.029,10.079c-0.211,7.62-11.25,7.8-15.39,4.38
			c-0.989-0.81-0.96-2.13-0.42-2.939c0.78-0.78,1.649-1.051,2.67-0.21c2.46,1.68,8.79,2.939,9.239-1.32
			C259.265,168.718,246.785,171.388,247.715,162.867z"/>
		<path fill="#FFFFFF" d="M270.904,162.268v4.77h7.65c1.08,0,2.16,1.08,2.16,2.13c0,0.99-1.08,1.8-2.16,1.8h-7.65v6.3
			c0,1.051-0.75,1.86-1.8,1.86c-1.319,0-2.13-0.81-2.13-1.86v-17.039c0-1.08,0.811-1.859,2.13-1.859h10.53
			c1.319,0,2.1,0.779,2.1,1.859c0,0.96-0.78,2.04-2.1,2.04H270.904z"/>
		<path fill="#FFFFFF" d="M299.193,160.348c0-2.67,3.93-2.88,3.93,0v10.859c0,11.22-18.089,11.22-18.089,0v-10.859
			c0-2.7,3.931-2.82,3.931,0v10.859c0,5.91,10.229,6.27,10.229,0V160.348z"/>
		<path fill="#FFFFFF" d="M307.295,160.168c0-0.99,0.84-1.83,1.889-1.83c0.961,0,1.771,0.84,1.771,1.83v15.029h8.159
			c2.94,0,3,3.93,0,3.93h-9.93c-1.049,0-1.889-0.75-1.889-1.83V160.168z"/>
	</g>
</g>
</svg>
