<?xml version="1.0" encoding="utf-8"?>
<!-- Generator: Adobe Illustrator 16.0.0, SVG Export Plug-In . SVG Version: 6.00 Build 0)  -->
<!DOCTYPE svg PUBLIC "-//W3C//DTD SVG 1.1//EN" "http://www.w3.org/Graphics/SVG/1.1/DTD/svg11.dtd">
<svg version="1.1" id="Layer_1" xmlns="http://www.w3.org/2000/svg" xmlns:xlink="http://www.w3.org/1999/xlink" x="0px" y="0px"
	 width="225.104px" height="284.91px" viewBox="0 0 225.104 284.91" enable-background="new 0 0 225.104 284.91"
	 xml:space="preserve">
<g>
	<g opacity="0.1">
		<path fill="#010101" d="M225.103,250.367c0,17.348-18.493,34.543-37.146,34.543l-150.814-3.137
			c-18.646,0-33.769-14.062-33.769-31.406L0,56.042c0-17.343,18.496-31.405,37.144-31.405h150.814
			c18.65,0,33.767,14.062,33.767,31.405L225.103,250.367z"/>
	</g>
	<g>
		<path fill="#9DC64F" d="M42.364,264.632c-18.637,0-33.846-15.209-33.846-33.901L5.378,36.443C5.377,18.343,22.687,2.5,42.42,2.5
			h140.267c18.692,0,33.9,15.209,33.9,33.905l3.142,194.289c0,18.731-18.349,37.08-37.042,37.08L42.364,264.632z"/>
		<path fill="#1D6B77" d="M182.686,5c17.34,0,31.4,14.062,31.4,31.405l3.143,194.326c0,17.348-17.203,34.543-34.543,34.543
			L42.42,262.132c-17.34,0-31.401-14.055-31.401-31.401L7.877,36.405C7.877,19.062,25.08,5,42.42,5H182.686 M182.686,0H42.42
			c-9.652,0-19.521,3.806-27.073,10.443c-8.04,7.065-12.47,16.285-12.47,25.962v0.039v0.038l3.141,194.29
			c0.021,20.033,16.312,36.33,36.345,36.36l140.212,3.142h0.056h0.057c9.582,0,19.536-4.457,27.31-12.229
			c7.774-7.773,12.233-17.729,12.233-27.312v-0.037v-0.039l-3.142-194.289C219.065,16.31,202.744,0,182.686,0L182.686,0z"/>
	</g>
	<path fill="#C4D462" d="M194.571,32.493c-1.021-4.232-5.547-6.804-9.833-8.371c-17.341-6.329-36.925-4.153-54.766,0.786
		c-3.782,1.048-7.72,2.333-10.284,5.154c-2.563,2.824-3.039,7.654,0.02,9.992c1.234,0.944,2.819,1.347,4.361,1.708
		c17.001,3.966,34.673,5.378,52.146,4.168c4.41-0.307,8.97-0.829,12.752-2.986C192.749,40.782,195.552,36.56,194.571,32.493z"/>
	<g>
		<g>
			<g>
				<defs>
					<path id="SVGID_1_" d="M217.229,230.73c0,17.348-17.203,34.543-34.543,34.543L42.42,262.132
						c-17.34,0-31.401-14.055-31.401-31.401L7.877,36.405C7.877,19.062,25.08,5,42.42,5h140.267c17.34,0,31.4,14.062,31.4,31.405
						L217.229,230.73z"/>
				</defs>
				<clipPath id="SVGID_2_">
					<use xlink:href="#SVGID_1_"  overflow="visible"/>
				</clipPath>
				<path clip-path="url(#SVGID_2_)" fill="#94B844" d="M7.877,123.45c0,0,18.579,65.682,40.562,86.098
					c21.982,20.408,47.104,24.334,83.216,24.334s85.573-25.118,85.573-25.118l5.497,153.557l-27.959,22.246H38.231l-63.589-113.783
					L7.877,123.45z"/>
			</g>
		</g>
	</g>
</g>
<path fill-rule="evenodd" clip-rule="evenodd" fill="#2A8643" d="M206.855,222.258c0,8.283-6.715,15-15,15H33.249
	c-8.284,0-15-6.717-15-15V46.651c0-8.284,6.716-15,15-15h158.605c8.285,0,15,6.716,15,15V222.258z"/>
<g>
	<path fill="#FFFFFF" d="M40.803,154.773c-2.24-1.26-3.64-3.78-2.24-6.721l20.092-39.274c1.89-3.71,6.931-3.851,8.681,0
		l19.742,39.274c2.87,5.461-5.601,9.801-8.121,4.34l-3.08-6.16H50.044l-3.01,6.16C45.914,154.773,43.323,155.264,40.803,154.773z
		 M70.906,136.992L62.996,119.7l-8.611,17.292H70.906z"/>
	<path fill="#FFFFFF" d="M97.643,154.773c-2.521,0-4.271-1.891-4.271-4.34v-39.765c0-2.521,1.75-4.341,4.271-4.341h19.672
		c9.17,0,14.141,6.231,14.141,13.372c0,3.15-0.91,6.231-3.85,8.821c5.53,2.17,7.98,6.441,7.98,11.622
		c0,8.051-5.461,14.631-15.962,14.631H97.643z M117.316,114.869h-14.772V125.3h14.772c3.01,0,4.9-1.89,4.9-5.601
		C122.216,117.39,120.325,114.869,117.316,114.869z M102.544,146.232h17.082c8.121,0,8.121-12.391,0-12.391
		c-5.32,0-11.551,0-17.082,0V146.232z"/>
	<path fill="#FFFFFF" d="M142.092,130.201c0-13.511,8.471-25.132,24.572-25.132c6.091,0,10.921,1.82,16.032,6.23
		c1.89,1.75,2.1,4.831,0.21,6.791c-1.891,1.68-4.761,1.47-6.44-0.21c-2.871-3.01-5.812-3.85-9.802-3.85
		c-10.78,0-15.962,7.631-15.962,16.171c0,8.681,5.111,16.663,15.962,16.663c3.99,0,7.701-1.611,10.921-4.481
		c2.171-1.68,5.181-0.84,6.441,0.84c1.12,1.539,1.68,4.13-0.771,6.58c-4.9,4.551-10.781,5.461-16.592,5.461
		C149.723,155.264,142.092,143.713,142.092,130.201z"/>
</g>
</svg>
