<?xml version="1.0" encoding="utf-8"?>
<!-- Generator: Adobe Illustrator 16.0.0, SVG Export Plug-In . SVG Version: 6.00 Build 0)  -->
<!DOCTYPE svg PUBLIC "-//W3C//DTD SVG 1.1//EN" "http://www.w3.org/Graphics/SVG/1.1/DTD/svg11.dtd">
<svg version="1.1" id="Layer_1" xmlns="http://www.w3.org/2000/svg" xmlns:xlink="http://www.w3.org/1999/xlink" x="0px" y="0px"
	 width="225.104px" height="284.91px" viewBox="0 0 225.104 284.91" enable-background="new 0 0 225.104 284.91"
	 xml:space="preserve">
<g>
	<g opacity="0.1">
		<path fill="#010101" d="M225.103,250.367c0,17.348-18.493,34.543-37.146,34.543l-150.814-3.137
			c-18.646,0-33.769-14.062-33.769-31.406L0,56.042c0-17.343,18.496-31.405,37.144-31.405h150.814
			c18.65,0,33.767,14.062,33.767,31.405L225.103,250.367z"/>
	</g>
	<g>
		<path fill="#9DC64F" d="M42.364,264.632c-18.637,0-33.846-15.209-33.846-33.901L5.378,36.443C5.377,18.343,22.687,2.5,42.42,2.5
			h140.267c18.692,0,33.9,15.209,33.9,33.905l3.142,194.289c0,18.731-18.349,37.08-37.042,37.08L42.364,264.632z"/>
		<path fill="#1D6B77" d="M182.686,5c17.34,0,31.4,14.062,31.4,31.405l3.143,194.326c0,17.348-17.203,34.543-34.543,34.543
			L42.42,262.132c-17.34,0-31.401-14.055-31.401-31.401L7.877,36.405C7.877,19.062,25.08,5,42.42,5H182.686 M182.686,0H42.42
			c-9.652,0-19.521,3.806-27.073,10.443c-8.04,7.065-12.47,16.285-12.47,25.962v0.039v0.038l3.141,194.29
			c0.021,20.033,16.312,36.33,36.345,36.36l140.212,3.142h0.056h0.057c9.582,0,19.536-4.457,27.31-12.229
			c7.774-7.773,12.233-17.729,12.233-27.312v-0.037v-0.039l-3.142-194.289C219.065,16.31,202.744,0,182.686,0L182.686,0z"/>
	</g>
	<path fill="#C4D462" d="M194.571,32.493c-1.021-4.232-5.547-6.804-9.833-8.371c-17.341-6.329-36.925-4.153-54.766,0.786
		c-3.782,1.048-7.72,2.333-10.284,5.154c-2.563,2.824-3.039,7.654,0.02,9.992c1.234,0.944,2.819,1.347,4.361,1.708
		c17.001,3.966,34.673,5.378,52.146,4.168c4.41-0.307,8.97-0.829,12.752-2.986C192.749,40.782,195.552,36.56,194.571,32.493z"/>
	<g>
		<g>
			<g>
				<defs>
					<path id="SVGID_1_" d="M217.229,230.73c0,17.348-17.203,34.543-34.543,34.543L42.42,262.132
						c-17.34,0-31.401-14.055-31.401-31.401L7.877,36.405C7.877,19.062,25.08,5,42.42,5h140.267c17.34,0,31.4,14.062,31.4,31.405
						L217.229,230.73z"/>
				</defs>
				<clipPath id="SVGID_2_">
					<use xlink:href="#SVGID_1_"  overflow="visible"/>
				</clipPath>
				<path clip-path="url(#SVGID_2_)" fill="#94B844" d="M7.877,123.45c0,0,18.579,65.682,40.562,86.098
					c21.982,20.408,47.104,24.334,83.216,24.334s85.573-25.118,85.573-25.118l5.497,153.557l-27.959,22.246H38.231l-63.589-113.783
					L7.877,123.45z"/>
			</g>
		</g>
	</g>
</g>
<path fill-rule="evenodd" clip-rule="evenodd" fill="#2A8643" d="M206.855,222.258c0,8.283-6.715,15-15,15H33.249
	c-8.284,0-15-6.717-15-15V46.651c0-8.284,6.716-15,15-15h158.605c8.285,0,15,6.716,15,15V222.258z"/>
<g>
	<path fill="#FFFFFF" d="M146.366,198.638c13.458-6.057,29.105-24.564,33.312-37.181c0.841-2.691,1.851-5.215,2.523-7.57
		c0.505-1.851,1.009-3.869,1.346-5.888c0.505-2.523,0.841-5.215,1.009-7.738v-10.938c-0.336-2.691-0.672-5.551-1.177-7.906
		c-8.243-40.209-41.386-59.05-70.829-59.05c-32.635,0-67.461,23.05-72.003,66.788v11.106c0,1.514,1.514,10.262,1.682,10.935
		c0.841,2.859,1.682,6.056,2.692,8.916c0.673,1.682,1.514,3.7,2.355,5.551c1.346,2.355,2.691,5.047,4.037,7.402
		c10.262,16.825,28.602,28.265,42.9,31.461c3.196,0.673,6.561,1.514,9.757,2.019h80.585v-4.71h-44.918
		C141.824,200.992,144.011,199.646,146.366,198.638z M73.186,173.4c-2.523,0-5.047-0.841-7.57-1.851
		c-4.208-1.682-8.414-8.915-8.414-12.28v-3.364c0.673-9.589,9.255-14.467,15.984-14.467c1.514,0,4.71,0.673,5.888,1.178
		c7.402,3.364,9.925,9.588,9.925,14.803C88.999,166.504,82.102,173.4,73.186,173.4z M73.186,127.809
		c-5.215,0-11.611-2.187-14.807-9.589c-0.673-1.514-1.177-4.374-1.177-4.71v-3.364c1.177-9.421,9.087-14.299,15.816-14.299
		c9.589,0,15.981,7.569,15.981,15.98C88.999,120.911,82.102,127.809,73.186,127.809z M136.105,109.809
		c1.178-9.42,9.084-13.962,15.812-13.962c9.085,0,15.985,7.569,15.985,15.98c0,9.084-7.237,15.981-15.985,15.981
		c-1.291,0-1.756,0.034-2.207-0.037c-0.602-0.094-1.174-0.37-3.68-1.141c-4.711-1.346-9.926-8.411-9.926-12.616V109.809z
		 M112.55,196.282c-9.252,0-15.981-7.401-15.981-15.984c0-8.916,7.234-15.981,15.981-15.981c8.751,0,15.984,7.233,15.984,15.981
		C128.534,189.217,121.301,196.282,112.55,196.282z M99.092,134.709c0-1.518,1.009-2.526,2.355-2.526
		c1.682,0,2.691,1.346,2.691,2.526c0,1.515-1.514,2.523-2.523,2.523C99.933,137.232,99.092,135.719,99.092,134.709z
		 M106.999,141.774c2.019,0,2.523,1.346,2.523,2.355c0,1.851-1.514,2.523-2.523,2.523c-1.851,0-2.355-1.515-2.355-2.523
		C104.643,142.616,105.485,141.774,106.999,141.774z M104.643,125.117c0-1.683,0.841-2.355,2.355-2.355
		c2.019,0,2.523,1.346,2.523,2.355c0,1.851-1.514,2.523-2.523,2.523C105.148,127.641,104.643,126.126,104.643,125.117z
		 M110.027,134.709c0-1.181,0.841-2.526,2.523-2.526c1.518,0,2.527,1.346,2.527,2.526c0,1.515-1.515,2.523-2.527,2.523
		C110.868,137.232,110.027,135.719,110.027,134.709z M117.937,141.774c1.851,0,2.523,1.346,2.523,2.355
		c0,1.514-1.01,2.523-2.355,2.523c-1.682,0-2.523-1.01-2.523-2.523S116.423,141.774,117.937,141.774z M115.581,125.117
		c0-1.346,0.842-2.355,2.355-2.355c1.682,0,2.523,1.01,2.523,2.355c0,1.851-1.514,2.523-2.523,2.523
		C116.086,127.641,115.581,126.126,115.581,125.117z M120.964,134.709c0-1.181,0.842-2.526,2.523-2.526
		c1.346,0,2.523,1.009,2.523,2.526c0,1.515-1.514,2.523-2.523,2.523C121.806,137.232,120.964,135.719,120.964,134.709z
		 M112.55,105.099c-9.252,0-15.981-7.738-15.981-16.149c0-8.919,7.234-15.816,15.981-15.816c9.088,0,15.984,7.233,15.984,15.984
		C128.534,97.865,121.301,105.099,112.55,105.099z M136.105,159.606V155.4c1.346-9.084,8.748-13.794,15.812-13.794
		c9.085,0,15.985,7.233,15.985,15.981c0,9.084-7.405,15.812-15.985,15.812c-5.046,0-10.598-1.851-14.299-8.747
		C136.778,162.971,136.105,159.942,136.105,159.606z"/>
</g>
</svg>
