<?xml version="1.0" encoding="utf-8"?>
<!-- Generator: Adobe Illustrator 16.0.0, SVG Export Plug-In . SVG Version: 6.00 Build 0)  -->
<!DOCTYPE svg PUBLIC "-//W3C//DTD SVG 1.1//EN" "http://www.w3.org/Graphics/SVG/1.1/DTD/svg11.dtd">
<svg version="1.1" id="Layer_1" xmlns="http://www.w3.org/2000/svg" xmlns:xlink="http://www.w3.org/1999/xlink" x="0px" y="0px"
	 width="225.104px" height="284.91px" viewBox="0 0 225.104 284.91" enable-background="new 0 0 225.104 284.91"
	 xml:space="preserve">
<g>
	<g opacity="0.1">
		<path fill="#010101" d="M225.103,250.367c0,17.348-18.493,34.543-37.146,34.543l-150.814-3.137
			c-18.646,0-33.769-14.062-33.769-31.406L0,56.042c0-17.343,18.496-31.405,37.144-31.405h150.814
			c18.649,0,33.767,14.062,33.767,31.405L225.103,250.367z"/>
	</g>
	<g>
		<path fill="#9DC64F" d="M42.365,264.632c-18.638,0-33.847-15.209-33.847-33.901L5.378,36.443C5.377,18.343,22.687,2.5,42.42,2.5
			h140.267c18.692,0,33.9,15.209,33.9,33.905l3.142,194.289c0,18.731-18.349,37.08-37.042,37.08L42.365,264.632z"/>
		<path fill="#1D6B77" d="M182.686,5c17.34,0,31.4,14.062,31.4,31.405l3.143,194.326c0,17.349-17.203,34.543-34.543,34.543
			L42.42,262.132c-17.34,0-31.401-14.055-31.401-31.401L7.877,36.405C7.877,19.062,25.08,5,42.42,5H182.686 M182.686,0H42.42
			c-9.652,0-19.521,3.806-27.073,10.443c-8.04,7.065-12.47,16.285-12.47,25.962v0.039v0.038l3.141,194.29
			c0.021,20.033,16.312,36.33,36.345,36.36l140.213,3.142h0.056h0.057c9.582,0,19.536-4.457,27.311-12.229
			c7.773-7.773,12.232-17.729,12.232-27.312v-0.037v-0.038l-3.142-194.289C219.065,16.31,202.744,0,182.686,0L182.686,0z"/>
	</g>
	<path fill="#C4D462" d="M194.571,32.493c-1.021-4.232-5.547-6.804-9.833-8.371c-17.341-6.329-36.925-4.153-54.766,0.786
		c-3.782,1.048-7.72,2.333-10.284,5.154c-2.562,2.824-3.039,7.654,0.021,9.992c1.233,0.944,2.818,1.347,4.36,1.708
		c17.001,3.966,34.674,5.378,52.146,4.168c4.41-0.307,8.97-0.829,12.752-2.986C192.749,40.782,195.552,36.56,194.571,32.493z"/>
	<g>
		<g>
			<g>
				<g>
					<defs>
						<path id="SVGID_1_" d="M217.229,230.73c0,17.348-17.203,34.543-34.543,34.543L42.42,262.132
							c-17.34,0-31.401-14.055-31.401-31.401L7.877,36.405C7.877,19.062,25.08,5,42.42,5h140.267c17.34,0,31.4,14.062,31.4,31.405
							L217.229,230.73z"/>
					</defs>
					<clipPath id="SVGID_2_">
						<use xlink:href="#SVGID_1_"  overflow="visible"/>
					</clipPath>
					<path clip-path="url(#SVGID_2_)" fill="#94B844" d="M7.877,123.45c0,0,18.579,65.682,40.562,86.098
						c21.982,20.408,47.104,24.334,83.216,24.334c36.112,0,85.573-25.118,85.573-25.118l5.497,153.558l-27.959,22.246H38.231
						l-63.589-113.783L7.877,123.45z"/>
				</g>
			</g>
		</g>
	</g>
</g>
<path fill="#2A8643" d="M206.855,222.258c0,8.283-6.715,15-15,15H33.249c-8.284,0-15-6.717-15-15V46.651c0-8.284,6.716-15,15-15
	h158.604c8.285,0,15,6.716,15,15L206.855,222.258L206.855,222.258z"/>
<path fill-rule="evenodd" clip-rule="evenodd" fill="#FFFFFF" d="M108.851,101.79c2.114,1.058,4.757,2.467,7.224,3.877
	c9.869,5.286,19.564,10.926,29.609,16.215c1.057,0.529,1.584,2.115,1.584,2.819c0,2.996-5.285,4.229-6.342,5.111
	c-0.883,0.528-1.939,1.057-2.82,1.585L104.269,149.9c-0.704,0.353-1.585,0.704-2.114,0.704c-0.528,0-2.819-0.88-2.819-2.113v-47.758
	c0.881-2.114,1.586-1.763,2.644-1.763C104.622,98.971,105.503,100.204,108.851,101.79z M62.327,86.812v7.4
	c-0.881,0.177-3.524,1.41-3.524,2.996v85.823c0.176,0.353,1.586,2.644,2.467,2.644h85.999c1.764-0.705,2.645-2.291,2.996-3.524
	h7.754v0.881c-0.176,0.353-0.176,0.705-0.352,0.881c0.176,3.172-5.287,9.163-8.635,9.34c-0.354,0-0.529,0.352-1.059,0.352H60.741
	c-0.529,0-0.529-0.352-0.881-0.352c-1.41-0.353-3.524-1.41-4.934-2.468c-0.881-0.528-3.877-4.934-3.877-6.167V95.8
	c0.529-3.701,4.934-8.283,8.634-8.987H62.327z M163.128,79.235c0.705,0,2.82,1.409,2.82,2.29v85.997
	c-0.176,0.352-1.762,2.646-2.996,2.646H77.837c-0.352-0.177-1.057-0.353-1.233-0.705c-0.708-0.353-1.589-1.59-1.589-2.294V82.055
	c0-1.233,1.589-2.996,2.822-2.819H163.128z M164.363,71.306c5.463,0.353,9.691,6.167,9.691,10.572v85.468
	c-0.176,5.29-5.99,10.752-10.221,10.752H76.956c-5.113-0.352-9.871-6.344-9.871-9.871V81.174c0.176-5.11,5.639-9.692,9.519-9.868
	H164.363z"/>
</svg>
