<?xml version="1.0" encoding="utf-8"?>
<!-- Generator: Adobe Illustrator 16.0.0, SVG Export Plug-In . SVG Version: 6.00 Build 0)  -->
<!DOCTYPE svg PUBLIC "-//W3C//DTD SVG 1.1//EN" "http://www.w3.org/Graphics/SVG/1.1/DTD/svg11.dtd">
<svg version="1.1" id="Layer_1" xmlns="http://www.w3.org/2000/svg" xmlns:xlink="http://www.w3.org/1999/xlink" x="0px" y="0px"
	 width="500px" height="250px" viewBox="0 0 500 250" enable-background="new 0 0 500 250" xml:space="preserve">
<path fill-rule="evenodd" clip-rule="evenodd" fill="#FFFFFF" d="M202.089,182.162v28.791H34.316
	c-8.73-1.652-12.269-8.494-12.269-14.394c0-7.078,4.719-13.453,13.685-14.397H202.089z M220.021,136.389v28.786H49.894
	c-8.734-0.708-13.454-8.259-13.454-14.394c0-5.898,4.483-13.685,12.746-14.393H220.021z M207.987,87.779v26.897H40.923
	c-8.73-0.236-13.921-8.022-13.921-14.393c0-4.011,2.124-10.618,7.786-12.505H207.987z M194.066,25.721l37.751,46.485v15.337h-14.628
	l-0.236,0.236l14.157,26.897v9.915h9.438v11.562h-8.494v29.257h8.494v11.562h-14.393v4.955h-12.033v29.262h12.033v11.562H33.373
	c-8.258-0.472-20.292-9.674-22.179-18.404c-0.236-1.415-0.944-4.247-0.944-4.719v-6.135c0.472-10.857,12.033-21.711,20.527-22.419
	c0.708,0,2.124-0.236,3.067-0.708c-6.606-5.663-9.202-13.449-9.202-19.584c0-8.729,4.011-17.932,15.809-24.066l-0.472-0.472
	c-16.044-1.18-24.774-14.162-24.774-26.195c0-0.472,0.236-3.303,0.472-4.955c0.708-7.313,8.494-14.156,11.326-18.403
	c10.854-16.988,21.711-33.981,32.329-50.969H194.066z"/>
<path fill-rule="evenodd" clip-rule="evenodd" fill="#FFFFFF" d="M371.833,198.354c0,2.24,0,4.231-2.239,7.219
	c-1.743,2.49-4.232,3.485-6.474,4.73c-4.481,2.489-10.207,5.478-14.438,6.97c-2.489,0.747-5.477,1.743-7.966,2.49
	c-2.987,0.746-6.473,1.245-9.212,1.992c-1.742,0.248-4.729,0.995-5.476,0.995H305.36c-4.232-1.494-17.923-2.489-17.923-11.451
	c0-4.73,6.97-8.464,10.953-10.456c12.695-6.224,25.895-9.958,38.839-13.442c9.958-2.494,8.216-5.233,15.934-5.233
	C360.631,182.167,371.833,188.646,371.833,198.354z M468.185,177.935c0.498,0.25,7.966,10.461,7.966,12.453
	c0,1.244-8.465,6.97-11.202,8.712c-3.733-6.223-9.216-13.696-14.692-19.671c3.236-2.489,6.721-4.979,10.206-7.967
	C462.707,172.708,465.695,175.197,468.185,177.935z M380.547,173.454c0.498,0.996,0.248,3.485,0.248,3.983
	c0,7.966-1.991,16.684-7.468,24.401c-0.249-0.249-0.497-0.996-0.249-1.245c2.988-9.211-10.206-19.92-18.421-19.92h-4.482
	c0.747-0.747,1.494-1.742,1.743-2.739c2.739-8.464,9.709-10.454,15.933-10.454C371.584,167.48,378.306,168.476,380.547,173.454z
	 M470.176,160.509c2.489,0.249,5.726,1.743,8.713,3.735c0.996,0.746,7.717,7.965,7.717,10.454c0,1.992-4.729,9.212-5.726,10.705
	c-0.747,1.245-1.991,2.743-3.236,3.987c-0.746-1.244-1.742-3.24-2.738-4.734c-2.489-4.729-7.717-10.953-12.945-14.189
	c0,0-0.248,0.25-0.248-0.249c0-0.747,1.991-2.987,2.737-4.231c0.997-1.742,1.992-3.734,2.988-5.726
	C468.185,160.261,469.18,160.509,470.176,160.509z M417.146,167.23c0.248,1.992,0.497,4.231,0.995,6.473
	c1.743,7.718,6.473,9.211,11.452,9.211c4.48,0,13.94-3.236,15.932-3.236c2.987,0,9.46,9.216,10.207,10.46
	c2.489,3.236,7.225,9.958,7.225,10.705c0,4.481-11.706,8.713-12.203,8.962c-3.486,0.995-7.22,2.241-10.456,2.987
	c-4.73,0.747-5.228,0.996-8.962,0.996c-12.695,0-27.882-5.726-37.093-22.405c-2.738-5.232-5.73-13.198-5.73-18.427
	c0-1.991,0.497-4.729,1.499-6.223c1.493-2.988,16.679-8.962,22.156-8.962C416.399,157.771,417.146,166.981,417.146,167.23z
	 M372.83,150.303c1.99,1.494,2.489,4.48,3.484,6.722c1.742,3.484,2.738,8.464,3.983,12.198l-0.25,0.995
	c-3.733-3.734-8.712-4.231-12.197-4.231c-4.232,0-10.954,1.244-14.439,5.975c-0.746-2.738-2.737-7.967-2.737-8.714
	c0-7.717,9.21-14.438,15.932-14.438C368.847,148.809,370.091,148.062,372.83,150.303z M489.594,154.783
	c0.498,0.996,0.248,3.485,0.248,3.983c0,4.73-0.995,8.962-1.991,12.945c-0.248,0-0.248,0.249-0.498,0.497
	c-3.983-8.215-12.944-13.442-19.417-13.442c-0.25-0.249-0.25,0-0.25-0.747c0-0.498,0.25-0.995,0.499-1.494
	c0-8.463-0.249-8.962-0.249-9.709c0-1.742,7.219-2.239,8.215-2.239C481.378,144.577,487.104,146.319,489.594,154.783z
	 M406.69,144.079c0.995,0.498,0.995,2.24,1.494,3.236c0.747,2.489,2.24,5.228,2.986,7.717c-6.722,1.245-14.687,2.987-21.159,8.465
	c-1.748-2.489-4.984-11.203-4.984-12.198c0-3.236,8.968-6.722,10.958-6.972c1.991-0.497,5.975-0.745,6.474-0.745
	C403.205,143.582,405.446,143.332,406.69,144.079z M371.087,147.315c0,0,0.249,0.248,0,0.747c-1.493-0.499-3.983-0.996-4.73-0.996
	c-6.721,0-15.683,5.975-17.177,14.937c-1.742-2.489-4.979-6.224-7.468-8.464c-0.747-0.747-1.743-1.494-2.739-2.24
	c-0.249,0-0.498-0.249-0.498-0.996c0-0.498,0.498-3.486,0.996-4.979c3.236-8.714,9.211-10.456,15.187-10.456
	C362.125,134.868,363.12,136.362,371.087,147.315z M488.348,138.104c0.25,2.241,1.494,5.975,1.494,6.722v6.224
	c-3.983-6.971-9.211-7.967-13.94-7.967c-3.485,0-4.48,0-8.464,1.494c-0.249-1.494-0.498-3.485-0.996-4.979
	c-0.248-1.494-1.245-3.983-1.245-4.73c0-0.498,1.245-1.245,1.743-1.494c1.743-0.995,3.734-1.991,5.975-2.489
	c0.996-0.249,2.987-0.249,3.734-0.249C480.383,130.636,487.851,131.88,488.348,138.104z M399.721,128.894
	c1.244,0.497,1.742,2.986,2.239,3.983c1.494,2.738,2.739,6.223,4.232,9.211c-0.497,0.248-1.244-0.498-5.975,0
	c-5.726,0.248-12.95,2.986-15.937,7.468l-5.478-12.446c3.236-6.722,11.705-8.466,16.684-8.466
	C395.985,128.644,398.227,128.396,399.721,128.894z M357.644,133.126h-4.73c-7.965,0-15.185,8.712-15.684,14.438
	c0,0.747-0.248,1.494-0.497,2.241l-16.182-9.211c2.241-12.945,13.692-16.43,21.907-16.43
	C346.192,124.164,355.402,131.632,357.644,133.126z M481.378,117.939c0.747,0.499,0.996,2.241,1.494,3.236
	c1.244,3.486,2.986,6.722,3.733,10.704c-3.733-2.489-6.721-2.737-9.957-2.737c-3.983,0-7.22,0.248-11.7,3.983l-5.233-11.7
	c4.486-3.983,8.968-5.229,13.448-5.229C475.901,116.197,478.641,116.197,481.378,117.939z M340.965,122.421
	c-1.494,0.249-3.236,0.498-4.73,0.747c-0.747,0-1.742,0.747-2.738,0.747c-5.975,0.996-13.692,8.962-14.189,14.937
	c0,0.497,0,1.244-0.498,1.494c-3.241-1.743-15.439-6.972-15.439-9.212c0-0.746,0.498-2.24,0.747-3.236
	c2.737-8.214,12.447-12.95,18.676-13.946L340.965,122.421z M399.222,127.151h-3.982c-5.979,0-11.456,0.995-17.183,7.965
	c-1.99-3.733-6.721-11.7-6.721-12.198c0-0.746,0.747-1.244,0.995-1.493c4.48-5.478,9.46-6.727,14.189-7.971
	c1.245-0.499,3.241-0.499,4.984-0.499C394.243,117.691,396.981,122.421,399.222,127.151z M313.825,109.471
	c1.742,1.244,4.236,2.24,6.478,3.485c-5.98,0.996-16.436,7.723-17.93,15.19c0,0.747-0.249,1.743-0.746,2.738
	c-2.241-1.244-4.979-2.987-7.22-4.979c-0.497-0.249-8.216-8.215-8.216-9.459c0-0.747,1.246-1.245,1.992-1.997
	c4.979-3.983,10.705-6.721,16.181-7.468c1.246-0.25,3.983-0.498,4.482-0.498C311.086,106.483,310.091,106.981,313.825,109.471z
	 M474.158,103.994c2.241,3.734,4.232,7.717,6.225,11.456c0,0,0,0.25-0.498,0.25c-0.747,0-2.241-1.001-3.236-1.001
	c-0.996-0.249-2.738,0-3.485,0c-4.979,0-8.714,1.001-13.945,4.984c-2.241-2.988-3.734-6.479-5.726-9.465
	c6.223-5.478,10.46-6.473,16.435-6.473C470.425,103.745,472.665,103.745,474.158,103.994z M390.26,110.715v0.747
	c-6.229,0.996-13.696,1.993-19.671,9.714c-2.489-3.485-5.478-7.473-8.962-11.456c4.231-5.726,11.203-10.206,16.182-11.95
	c0.747-0.249,1.494-0.746,2.239-0.746C381.045,97.024,387.268,106.483,390.26,110.715z M307.353,98.767
	c0.497,0.497,0,1.493,0.248,2.24c0.249,0.997,0.996,2.241,1.494,3.236v0.747c-7.717,0.499-15.932,2.739-23.649,9.709
	c-0.498-0.499-3.485-7.468-3.485-8.714v-11.45c3.983-2.241,5.726-2.491,8.962-2.491C296.149,92.044,304.613,94.535,307.353,98.767z
	 M472.914,102.251h-6.721c-4.73,0.499-8.968,2.738-13.448,6.473l-6.722-8.465c2.738-3.485,13.691-8.961,18.178-8.961
	C465.695,91.298,471.669,99.762,472.914,102.251z M378.804,95.53c-2.489,1.244-5.726,2.489-8.215,3.983
	c-4.232,2.489-9.958,8.712-10.207,8.712c-0.746,0-10.207-7.717-10.207-8.215c0-0.747,0.499-1.244,0.747-1.991
	c0.996-1.742,2.241-3.983,3.236-5.477c0-0.249,8.216-8.962,10.206-8.962C366.107,83.581,377.311,93.788,378.804,95.53z
	 M463.454,89.555c-6.229,1.992-12.451,3.236-18.676,9.709c-1.742-1.244-8.215-5.726-8.215-6.223c0-6.971,7.718-13.194,14.439-13.194
	C453.243,79.847,462.21,87.812,463.454,89.555z M301.128,75.365c5.726,3.983,8.714,13.194,8.714,18.173
	c0,0.747-1.245,2.241-1.742,3.236c-5.727-4.73-11.452-6.223-17.178-6.223c-0.747,0-3.236,0-4.481,0.249
	c-1.244,0-2.986,1.244-4.231,1.244c0.746-2.489,1.245-5.227,2.24-7.468c0.747-1.742,8.962-11.451,12.447-11.451
	C297.395,73.125,299.386,74.37,301.128,75.365z M434.82,72.876c4.482,0.995,9.461,2.489,14.189,5.229
	c0,0.249-0.745,0.497-0.995,0.497c-3.983,0.747-12.447,6.224-12.695,11.7c0,0.747-0.249,1.742-0.499,2.739
	c-3.982-1.494-7.468-2.49-11.451-2.49v-1.494c0-3.485,4.73-16.431,10.207-16.431C434.074,72.627,434.323,72.876,434.82,72.876z
	 M345.445,72.876c5.229,2.241,11.949,5.477,17.427,9.46c-5.478,3.236-12.448,11.451-14.19,16.927
	c-4.232-2.24-8.963-4.48-12.944-6.473c-0.25,0-0.499-0.249-0.499-0.996c0-0.497,0.499-2.241,0.499-3.485
	c0.497-1.743,0.745-3.735,1.244-5.228c0.498-1.992,1.493-4.233,2.737-5.976c0.747-1.742,2.988-4.979,3.735-4.979
	C343.952,72.129,344.449,72.627,345.445,72.876z M410.674,72.129c-2.241,3.486-3.485,7.718-3.485,11.452
	c0,0.747,0.497,4.481,0.996,6.473c-1.245,0.249-3.236,0.249-3.735,0.249c-0.747,0-6.721-0.249-9.957-0.747
	c-0.497-0.746-0.996-2.24-0.996-2.738v-6.97c0.747-2.988,1.244-6.473,3.983-7.468l12.198-0.498
	C410.425,71.88,410.425,71.88,410.674,72.129z M430.091,72.378c-6.224,5.476-7.469,11.452-8.216,17.923h-11.699
	c-0.747-1.493-1.494-4.979-1.494-6.721c0-0.498,0.25-1.991,0.25-2.987c3.484-10.456,2.239-8.962,9.459-8.962
	C419.138,71.632,426.357,71.88,430.091,72.378z M386.771,71.382c2.239,0.499,5.232,0.747,7.97,0.997
	c-2.489,4.232-2.986,7.219-2.986,10.705c0,0.747,0.497,3.982,0.747,5.975l-0.498,0.497c-3.241-0.497-6.976-1.493-10.212-2.24
	c-1.244-0.25-2.738-0.747-4.232-1.494c0-1.246-0.248-3.236-0.248-3.735v-1.991c0.248-0.995,0.248-2.489,0.746-3.236
	c0.499-1.494,2.988-6.473,4.48-6.473C383.036,70.386,385.276,71.133,386.771,71.382z M341.213,71.382c0,0,0.25-0.249,0.25,0.499
	c0,0.498-1.744,1.991-2.49,3.485c-1.991,2.988-3.734,7.468-4.48,10.705c-0.499,1.742-0.499,3.983-0.996,5.974
	c-1.992-0.497-3.983-1.493-5.975-1.742c-1.493-0.249-2.987-0.249-4.481-0.497c-0.498-0.499-2.24-6.971-2.24-8.714v-4.73
	c0.747-2.987,0.249-5.975,2.24-8.961C328.518,67.648,335.487,69.391,341.213,71.382z M320.8,67.15c0,0,0.249-0.249,0.249,0.499
	c0,0.497-0.746,1.991-0.996,3.236c-0.497,2.24-0.746,7.22-0.746,7.717c0,3.983,0.746,6.721,1.742,11.203
	c-2.987,0.497-6.477,0.747-9.465,3.236c-1.245-6.971-3.484-16.182-12.695-20.912c5.228-3.485,11.948-4.729,18.173-4.979H320.8z
	 M373.825,65.408c1.991,1.742,4.48,3.236,6.722,4.481c-2.738,2.738-4.48,6.97-4.73,9.958c0,4.48,0,5.228,0.25,5.228
	c0,0,0,0.249-0.499,0.249c-2.24,0-13.442-8.712-13.442-8.962c-0.25-0.746-0.25-1.991-0.25-2.738c0-0.498,0.25-1.742,0.25-2.738
	c0.995-3.236,5.476-7.718,8.713-7.718C371.336,63.167,372.58,64.661,373.825,65.408z M364.116,53.209
	c0.747,0.996,1.245,2.739,2.24,4.232c0.747,1.246,1.991,2.739,3.485,4.233c-5.228,0.746-10.456,8.464-9.709,12.696
	c-0.249-0.249-9.211-11.452-9.211-13.442c0-4.232,8.714-8.215,11.203-8.215C362.622,52.712,363.369,52.712,364.116,53.209z
	 M362.872,43.75c0.497,0.747,0,2.241,0,2.986c0,0.499,0.497,2.988,0.746,4.482c-4.232-0.747-10.705,2.738-13.691,7.717
	c-0.747-1.494-1.742-4.48-1.742-4.979v-6.97c1.99-7.225,0.248-8.22,6.473-8.22C357.395,38.767,361.378,39.512,362.872,43.75z
	 M369.344,27.563c0.747,0.497,1.245,1.244,1.743,2.241c0.746,0.747,1.244,2.738,1.244,3.485c0,0.498,0,0.747-0.248,0.996
	c-1.494,0.996-3.236,1.494-4.482,2.738c-1.493,0.997-3.236,3.486-3.733,4.73c-2.739-3.485-6.473-4.73-9.21-4.73
	c-0.747,0-1.744,0.25-3.486,0.25c0.498-3.236,8.962-12.447,12.696-12.447C364.614,24.826,367.601,26.07,369.344,27.563z
	 M445.276,33.289c0,2.49-4.231,2.49-5.477,2.49c-4.729,0-10.705-0.996-15.186-1.992c1.494-3.235,1.991-6.472,1.494-9.708
	c0.249-0.25,0.249-0.25,0.747-0.25C428.598,23.829,445.276,28.061,445.276,33.289z M418.142,22.086
	c1.743,0.25,3.983,0.25,5.975,1.245c0.747,0.497,0.747,2.49,0.747,3.485c0,1.991-0.996,4.48-1.991,6.722
	c-5.229-0.747-10.704-1.494-16.431-1.991c0.498-2.739,0.747-4.979,0.747-5.726c0-0.499-0.498-3.236-0.996-4.73l1.742-0.249
	C411.171,21.339,414.657,21.589,418.142,22.086z M385.027,20.842c0.498,0.249,3.236,3.733,3.236,4.729v4.98
	c-4.729,0.746-9.46,1.493-14.189,2.987c0-3.236-3.485-7.967-7.469-9.459c3.236-1.743,11.95-3.236,16.431-3.236
	C383.534,20.842,384.281,20.592,385.027,20.842z M404.449,20.842c0.747,1.743,1.246,4.48,1.246,4.979
	c0,1.244-1.246,4.979-1.246,5.476c-2.986-0.249-6.223-0.746-12.944-0.746c-0.249,0-0.746,0.249-1.245,0.249
	c-0.747-1.494-0.248-1.494-0.248-2.241c-0.25-2.988-0.499-4.73-2.744-7.967c2.245-0.249,5.98-0.249,6.478-0.249
	C394.492,20.344,400.965,20.592,404.449,20.842z"/>
</svg>
