<?xml version="1.0" encoding="utf-8"?>
<!-- Generator: Adobe Illustrator 16.0.0, SVG Export Plug-In . SVG Version: 6.00 Build 0)  -->
<!DOCTYPE svg PUBLIC "-//W3C//DTD SVG 1.1//EN" "http://www.w3.org/Graphics/SVG/1.1/DTD/svg11.dtd">
<svg version="1.1" id="Layer_1" xmlns="http://www.w3.org/2000/svg" xmlns:xlink="http://www.w3.org/1999/xlink" x="0px" y="0px"
	 width="500px" height="250px" viewBox="0 0 500 250" enable-background="new 0 0 500 250" xml:space="preserve">
<path fill-rule="evenodd" clip-rule="evenodd" fill="#FFFFFF" d="M155.007,37.671c16.482,8.558,26.625,22.822,26.625,35.818
	c0,5.706-4.438,11.411-10.46,11.411c-3.487,0-9.192-2.853-10.143-7.29c-3.17-15.532-13.947-22.505-24.407-22.505
	c-0.951,0-3.17-0.317-4.121,0c-1.584,0.317-2.853,0.634-3.803,0.951c-1.902,0.634-3.487,1.268-4.755,2.219
	c-6.022,3.17-11.411,11.095-11.411,16.8c0,0.317-0.317,0.317-0.317,1.268v6.022c-0.317,1.902-0.951,3.804-1.268,5.389
	c-0.317,0.951-0.634,2.219-0.951,3.17c-1.268,2.853-2.853,5.705-4.754,8.559c-1.585,2.219-5.389,6.022-5.389,6.663
	c0,0.95,0,0.634,0.317,0.634c3.487,1.268,8.875,6.656,12.045,10.46c2.853,2.853,5.389,11.727,5.389,15.532
	c0,2.854-0.317,4.754-1.902,9.191c-2.536,7.926-11.728,12.363-17.757,16.482c-0.951,0.635-1.268,2.219-1.584,3.17
	c0,0.318-0.317,0.318-0.317,0.951c0,3.17,2.219,4.756,5.712,5.705c4.121,1.27,6.339,6.975,6.339,10.145
	c0,5.705-5.706,10.143-10.783,10.143c-9.826,0-21.871-14.898-21.871-21.555v-9.826c0.634-3.486,2.219-8.559,5.389-11.727
	c0.634-0.951,2.536-2.854,4.121-3.805c0.317-0.316,11.728-6.656,11.728-8.559c0-5.07-8.242-8.558-11.728-10.143
	c-2.853-1.268-7.291-4.754-8.559-7.607c-0.317-1.268-0.951-2.535-0.951-3.169v-7.297c0.951-8.559,15.849-17.117,15.849-25.358
	v-6.339c0.317-0.317,0.317-0.635,0.317-0.951c3.487-25.675,25.998-38.354,44.699-38.354
	C142.646,33.867,148.351,34.184,155.007,37.671z M144.23,7.235c43.425,5.389,64.668,40.896,64.668,72.276
	c0,0.951,0,3.17-0.316,11.094c-0.951,11.095-3.486,23.146-7.925,34.557c-5.388,13.629-18.707,28.211-29.801,42.475
	c-10.777,13.312-19.652,26.941-26.309,40.895c-12.362,25.041-26.943,34.234-45.967,34.234c-15.532,0-33.599-9.193-42.158-29.797
	c-0.317-0.633-2.536-8.557-2.536-10.459v-7.613c1.902-6.023,5.706-8.242,10.143-8.242c3.804,0,8.241,1.902,9.826,6.975
	c0.951,2.219,0.634,5.395,1.268,8.246c3.169,14.264,14.264,19.652,24.09,19.652c9.515,0,16.489-4.438,23.462-17.115
	c8.875-16.49,18.384-32.973,31.063-49.455c10.46-13.629,25.358-28.844,29.479-42.157c2.853-8.565,3.487-16.807,4.438-24.73V74.44
	c-4.12-30.747-27.577-46.595-51.032-46.595c-4.438,0-14.898,2.219-16.166,2.536c-1.584,0.317-3.169,1.268-4.754,1.902
	c-11.411,4.121-24.096,19.335-27.266,29.795c-1.268,4.438-2.219,10.144-3.169,14.581c-0.951,5.705-6.339,8.559-10.46,8.559
	c-0.634,0-1.902-0.635-2.853-0.635c-1.585,0-7.291-5.071-7.291-7.606V71.27c0.634-2.219,0.951-4.755,1.268-6.974
	c2.536-17.433,18.702-41.523,39.311-50.405c1.584-0.634,3.804-1.902,5.706-2.536s4.754-1.585,7.29-2.219
	c3.17-0.951,6.974-1.268,10.46-1.902H144.23z"/>
<path fill-rule="evenodd" clip-rule="evenodd" fill="#FFFFFF" d="M436.175,151.323c0,5.008-0.752,10.767-2.254,15.273
	c-0.25,1.252-1.001,2.504-1.502,4.257c-3.756,12.019-19.53,27.548-31.805,31.053c-2.253,0.501-4.256,1.252-6.009,1.753
	c-2.254,0.501-11.769,1.753-12.27,1.753c-0.751,0-2.253-0.501-3.505-0.501c-4.007-0.251-9.265-1.002-13.021-2.254
	c-2.504-0.751-4.507-1.752-6.761-2.754c-12.52-5.013-26.295-21.538-28.549-32.806c0-0.501-2.254-9.766-2.254-11.518v-8.514
	c3.506-33.057,29.802-49.832,53.839-49.832C412.638,97.234,436.175,121.772,436.175,151.323z M410.635,17.856l14.773,18.529
	l-26.046,35.561c0,0.25,0.251,0.5,0.501,0.5c43.823,10.517,63.103,47.824,63.103,79.629c0,26.541-16.275,60.599-51.329,74.12
	c-2.008,0.751-4.262,1.752-6.265,2.253s-10.517,3.005-14.272,3.005h-18.027c-3.005-0.751-7.012-1.252-10.016-2.003
	c-8.263-2.254-17.277-5.509-25.29-11.018c-12.023-7.762-23.291-21.282-28.549-32.806c-2.003-5.008-4.006-9.014-5.008-13.771
	c-0.751-4.507-2.504-10.266-2.504-14.522v-11.768c0.751-9.515,3.005-19.28,7.262-28.55c0.25-0.751,1.001-1.753,1.502-2.754
	c6.26-14.022,24.789-31.299,38.314-36.557c5.258-2.254,10.266-4.007,15.774-5.259c0.25,0,0.501-0.25,0.501-0.5l-26.041-35.561
	l14.773-18.529H410.635z"/>
</svg>
