<?xml version="1.0" encoding="utf-8"?>
<!-- Generator: Adobe Illustrator 16.0.0, SVG Export Plug-In . SVG Version: 6.00 Build 0)  -->
<!DOCTYPE svg PUBLIC "-//W3C//DTD SVG 1.1//EN" "http://www.w3.org/Graphics/SVG/1.1/DTD/svg11.dtd">
<svg version="1.1" id="Layer_1" xmlns="http://www.w3.org/2000/svg" xmlns:xlink="http://www.w3.org/1999/xlink" x="0px" y="0px"
	 width="500px" height="250px" viewBox="0 0 500 250" enable-background="new 0 0 500 250" xml:space="preserve">
<path fill-rule="evenodd" clip-rule="evenodd" fill="#FFFFFF" d="M200.02,84.537c0,0.902-0.602,7.218-1.504,10.526
	c-0.301,0.902-1.805,0.3-2.406,0.902c-0.902,0.301-1.805,1.805-2.708,3.007c0-1.203,0.301-2.707,0.301-4.21
	c0.601-2.406,2.406-6.917,2.406-7.819c0-2.106-1.805-4.812-3.309-5.715c2.105-2.707,2.707-3.609,4.211-3.609
	C200.02,77.62,200.02,83.936,200.02,84.537z M129.338,2.126c1.203,0,1.503-1.504,3.909-2.406c0.602,0.301,0.602,1.504,1.805,1.805
	c2.406,1.203,6.315-0.301,9.624,2.105c2.105,1.804,3.609,4.21,5.414,6.315c2.406,2.708,4.21,5.414,5.714,8.121
	c1.203,1.805,3.91,2.707,5.714,3.91c2.105,1.504,4.211,3.309,6.015,5.714c1.203,1.204,1.805,3.916,1.805,5.721
	c0,4.511-5.113,6.015-6.917,6.015c-4.21,0-2.707-1.503-8.12-3.308c-3.309-1.203-9.925-2.105-10.526-2.105
	c-0.902,0-1.203,0.301-1.203,1.203c0,3.91,8.12,11.127,11.428,14.436c2.106,2.105,3.91,5.414,6.316,6.917
	c4.812,3.609,11.729,3.909,15.639,11.127c1.504,2.707-0.602,9.323,4.21,9.323c3.309,0,12.637-9.323,18.652-9.323
	c3.007,0,6.616,3.609,6.616,6.015v7.82c0.902,3.609,2.707,9.323,2.707,10.225c0,3.007-10.225,15.338-12.631,16.542l-2.707-6.316
	c-0.602,1.503-0.301,4.812-1.804,6.616c-4.211,4.812-10.833,10.232-15.344,11.735c0,0-0.301-0.301-0.602-0.301v-9.63
	c1.203-2.707,4.511-1.203,6.617-2.105c3.91-1.805,5.419-6.015,5.419-9.022c0.301-2.105,0.602-5.414,0.602-6.316
	c0-1.203,0-1.503-1.203-3.007c-3.314,3.007-6.322,6.616-9.63,9.323c-1.504,1.203-3.309,0.601-4.511,1.503
	c-1.504,1.203-2.406,3.308-3.309,4.812c-3.007,5.413-5.714,11.434-9.323,16.546c-3.309,4.813-7.82,8.722-11.729,13.234
	c-4.511,4.812-21.053,16.541-21.053,23.759c0,4.812,2.105,4.512,2.105,9.623c0,0.603,0,3.008-0.902,4.512
	c-6.315,9.323-11.729,18.045-19.548,27.067c-2.406,2.713-1.805,4.817-1.805,7.525c0,0.901-0.3,7.818,0.602,11.428
	c0.902,3.309,3.008,6.917,5.113,10.226c0.902,1.504,2.105,3.309,3.309,4.812c1.503,1.805,6.917,5.111,6.917,7.519
	c0,1.202-1.203,3.308-1.203,3.909h-6.315c-1.203-0.602-1.203-2.105-1.805-2.405c-1.804-2.106-3.609-4.212-5.413-5.414
	c-1.204-0.602-2.707,0.902-3.609-0.302c0-1.502,0-3.608-0.602-5.111c-3.609-10.226-12.336-29.173-12.336-30.075
	c0-3.013,3.609-3.916,4.511-7.225c0-0.601,0-1.504,0.301-2.104v-5.714c-3.91-5.113-10.526-10.827-14.737-16.541
	c-2.707-3.911-5.112-8.121-8.12-12.331c-0.601,0.602-0.902,0.902-0.902,1.805c0,5.714,14.737,21.954,14.737,25.563v11.428
	c-1.203-3.007-2.105-6.315-3.308-9.323c0,0-0.301-0.301-0.301,0.603l1.503,18.351c0.301,3.609-0.902,8.121-1.503,11.43l-0.902-9.926
	c-2.105,7.519,0.301,17.144-6.315,24.361c-1.504,1.504-8.12,5.714-11.128,5.714H56.25c0.902-1.805,4.511-2.105,6.616-3.909
	c2.707-2.708,2.707-7.519,3.609-11.128c0.301-1.203,0.602-3.309,0.602-4.211c0-0.602,0-1.805-0.3-8.422
	c-0.902-9.629-9.324-34.29-9.324-35.493v-7.218c1.204-4.511,2.707-9.323,7.82-13.534c3.008-2.706,8.12-1.805,7.819-6.015
	c1.203-5.714,4.211-11.428,8.722-17.144c0.902-1.202,1.804-3.006,2.707-3.909c2.707-3.007,6.015-5.414,9.022-7.519
	c0.902-0.901,2.707-1.804,3.909-3.008c11.134-11.434,19.254-17.148,19.254-27.675c0-0.601-1.805-1.804-2.105-2.405
	c-0.902-1.504-0.301-3.609-1.203-4.812c-2.105-3.91-7.519-4.812-6.617-9.022c0.301-0.602,0.301-1.804-0.3-2.406
	c0-0.3-0.902-0.601-1.203-1.203c-0.602-0.902,0-2.105-0.301-3.007c-0.3-0.902-2.707-0.301-2.105-2.406c-0.3-0.3,0-0.3-0.902-0.3
	c0,0-2.713,0.601-2.713,0.3c0-0.602,3.615-4.511,4.818-6.616c0,0,0-0.301-0.601-0.301c0,0-3.008,1.203-3.008,0.301
	c0-0.602,3.308-7.218,4.812-10.827c2.406-6.316,4.211-12.932,6.316-18.953c0.902-3.007,2.406-6.015,4.21-8.42
	c3.007-4.211,10.526-10.827,10.526-11.729c0-0.602-1.203-0.902-1.503-1.504c-0.902-1.203-0.902-2.406-1.204-3.609l0.301-2.707
	C126.029,0.623,127.533,2.126,129.338,2.126z"/>
<path fill-rule="evenodd" clip-rule="evenodd" fill="#FFFFFF" d="M318.948,118.283c19.456,10.112,38.903,28.005,59.129,43.182
	c22.56,17.114,50.176,31.506,73.91,31.506c8.557,0,21.003-2.723,28.394-13.614c0.389,1.556,0.389,3.89,0.389,4.668
	c0,7.001-1.556,15.558-12.446,17.892c-3.89,0.778-10.891,2.334-12.058,2.334c-1.945,0-2.723-2.334-2.723-2.723
	c0-0.778,0.389-1.556,0-2.723c-2.723,1.944-8.168,5.445-8.946,5.445c-2.334,0-7.009-1.167-7.009-3.501
	c0-0.777,0.778-1.556,0.778-2.333c0,0,0-0.39-0.778-0.39s-4.668,3.89-7.001,3.89c-1.167,0-7.779-1.167-7.779-3.5
	c0-1.167,0.777-1.945,1.167-3.112c0,0,0-0.389-0.778-0.389c-1.167,0-4.278,3.111-6.224,3.111c-2.333,0-7.778-2.333-7.778-4.278
	c0-1.167,0.389-1.167,0.389-1.556c0.389-0.389,0.389-0.778-0.389-1.556c-1.556,1.167-3.89,2.723-5.057,2.723
	c-1.556,0-8.168-3.111-8.168-5.057c0-1.167,0.777-1.944,0.777-2.723c0,0,0-0.389-0.777-0.389c-1.167,0-3.112,2.333-4.278,2.333
	c-1.167,0-8.558-3.889-8.558-5.834c0-1.167,0.389-1.167,0.389-3.111c-1.166,0.777-2.723,2.333-3.89,2.333
	c-0.777,0-5.056-3.111-7.778-5.056c-0.39-0.39-0.39-0.778-0.39-1.556c0-1.167,0.39-1.945,0.778-2.723c0,0,0-0.39-0.778-0.39
	c-1.166,0-2.333,1.945-3.5,1.945c-1.556,0-8.168-6.224-8.168-7.391s0.389-1.944,0.389-3.111c-1.167,0.777-2.723,1.944-3.89,1.944
	c-0.778,0-5.445-3.5-8.168-5.445v-1.556c0-0.778,0.389-1.556,0.389-3.89c-2.723,1.945-2.723,2.334-4.667,2.334
	c-2.334,0-7.779-5.057-7.779-5.835c0-1.166,1.556-3.119,0.389-4.286c-1.556,1.167-3.89,2.73-4.667,2.73
	c-1.167,0-5.064-2.341-7.009-3.896c-0.778-0.39-0.778-0.778-0.778-1.945c0-0.777,0.778-2.723,1.556-4.278c0,0,0-0.389-0.777-0.389
	c-1.167,0-4.668,3.111-5.835,3.111s-7.001-4.278-7.001-5.445c0-0.778,1.167-3.89,1.944-5.834c0,0,0-0.39-0.777-0.39
	c-1.167,0-5.445,3.89-6.612,3.89c-2.334,0-6.224-5.057-6.224-5.445c0-3.111,1.945-3.501,1.167-7.001
	c-1.944,1.556-5.445,3.89-6.224,3.89c-2.333,0-6.223-4.668-6.223-5.835c0-0.777,1.167-3.89,1.944-5.834
	c0.389-0.389,0.389-0.778,0-1.556c-2.334,1.556-5.834,3.89-7.001,3.89c-3.89,0-10.891-12.447-10.891-13.225v-7.39
	c1.944-5.834,8.946-8.557,13.613-10.113C288.999,98.057,306.891,112.06,318.948,118.283z M332.181,52.549
	c1.167,1.945,0.778,5.057,1.556,7.39c4.278,16.725,18.281,21.004,30.339,21.004c8.557,0,10.112-2.334,15.169-2.334
	c2.334,0,3.89,0.389,7.779,2.723c0,0,0.389,0,0.389-0.778c0-1.167-1.167-3.112-1.167-4.278c0-7.001,10.113-7.391,12.447-7.391
	c1.167,0,5.057,0,5.057,2.723c0,0.778-1.167,10.113-1.167,11.279c0,11.28,0,17.892,4.278,29.172
	c2.334,5.834,6.612,10.502,9.724,16.336c5.057,8.558,10.891,19.448,15.17,28.791c1.944,4.278,7.39,5.056,11.287,7.001
	c3.89,2.334,10.112,3.89,14.392,5.057c0.777,0.389,2.723,0.777,3.89,0.777c1.166,0.39,2.333,0.39,4.278,0.778
	c2.723,0.778,12.835,3.501,12.835,6.224c0,1.166-2.333,3.111-3.5,4.667c-3.112,3.89-9.335,6.612-12.836,7.391
	c-3.111,0.777-8.946,1.167-10.112,1.167c-18.289,0-34.625-8.558-53.295-19.06c-10.113-5.445-21.004-14.78-31.117-23.733
	c-9.335-8.168-19.059-15.559-28.782-22.56c-4.278-3.112-47.071-23.727-47.071-41.229c0-2.723,1.556-4.279,3.111-7.39
	c5.057-10.891,16.336-18.67,26.061-24.894c1.556-1.167,5.056-1.167,5.834-1.167C328.283,50.215,331.014,49.438,332.181,52.549z"/>
</svg>
