<?xml version="1.0" encoding="utf-8"?>
<!-- Generator: Adobe Illustrator 16.0.0, SVG Export Plug-In . SVG Version: 6.00 Build 0)  -->
<!DOCTYPE svg PUBLIC "-//W3C//DTD SVG 1.1//EN" "http://www.w3.org/Graphics/SVG/1.1/DTD/svg11.dtd">
<svg version="1.1" id="Layer_1" xmlns="http://www.w3.org/2000/svg" xmlns:xlink="http://www.w3.org/1999/xlink" x="0px" y="0px"
	 width="500px" height="250px" viewBox="0 0 500 250" enable-background="new 0 0 500 250" xml:space="preserve">
<path fill-rule="evenodd" clip-rule="evenodd" fill="#FFFFFF" d="M154.619,197.646c2.011,4.309,7.182,11.49,7.182,16.949
	c0,6.033-5.746,13.215-12.928,13.215c-0.862,0-2.011-0.574-3.16-0.574c-4.022,0-10.055-6.607-10.055-10.629v-5.172
	c1.149-4.885,5.746-10.055,8.332-15.227c1.724-3.734,3.16-6.895,5.746-10.348C150.31,189.314,152.608,193.623,154.619,197.646z
	 M91.41,185.861c1.437,3.74,3.447,7.762,5.171,11.496c2.586,5.172,7.183,12.066,7.183,17.238c0,6.895-6.608,13.215-12.928,13.215
	c-0.862,0-2.011-0.287-3.16-0.574c-0.862,0-1.724-0.574-2.585-0.861c-2.873-0.861-7.183-6.895-7.183-8.906v-6.895
	c3.735-8.045,10.343-16.664,13.215-24.713H91.41z M63.542,159.143c1.437,3.734,3.16,7.184,4.884,11.205
	c2.011,4.309,7.182,11.492,7.182,16.955c0,6.895-6.607,13.215-13.215,13.215c-8.044,0-12.934-6.32-12.934-13.789
	c0-0.58,0-3.453,0.575-4.602c3.453-7.471,9.773-15.514,12.646-22.984H63.542z M120.713,158.855c1.436,3.734,3.16,7.471,5.171,11.492
	c2.298,4.309,7.182,11.492,7.182,16.955c0,7.184-6.32,13.215-13.215,13.215c-0.862,0-4.022-0.574-5.746-1.436
	c-0.862-0.287-6.895-6.32-6.895-8.332v-7.762c4.31-8.045,10.055-16.088,13.215-24.133H120.713z M190.53,187.303
	c0,6.607-6.608,13.215-12.928,13.215c-2.585,0-6.607-1.148-7.469-2.297c-1.724-1.438-5.458-5.746-5.458-8.045v-6.613
	c3.447-8.043,9.768-16.662,13.215-24.707c0,0,0.287-0.287,0.862-0.287C179.9,166.9,190.53,179.541,190.53,187.303z M117.266,26.696
	c12.354,0.862,30.746,12.354,38.502,27.58c7.47-3.447,13.503-5.171,21.26-5.171c24.707,0,45.684,19.248,45.684,45.104
	c0,26.724-21.839,45.398-47.121,45.398L38.83,139.32c-1.149-0.287-2.586-0.574-3.735-0.574
	c-9.481-0.574-20.972-11.492-22.983-20.685c-0.287-1.437-0.862-3.448-0.862-4.022v-7.47c1.724-10.636,8.906-13.796,15.801-13.796
	c0.862,0,4.022,0.287,6.32,0.575l1.149-0.288c-0.862-2.585-1.437-4.597-1.437-6.895c0-9.193,7.182-17.237,16.663-17.237
	c3.166,0,8.337,1.724,12.072,4.021c0-3.16,0.287-7.757,1.436-10.629c0.575-2.012,1.437-3.735,2.011-5.459
	c5.171-15.226,24.994-29.304,37.922-30.166h6.895C110.945,26.696,114.967,26.409,117.266,26.696z"/>
<path fill-rule="evenodd" clip-rule="evenodd" fill="#FFFFFF" d="M448.759,137.721c3.876,0,8.527,0,12.79-1.558l33.721,21.713
	c-8.14,2.325-13.178,2.325-19.38,2.325c-10.465,0-5.813,0-20.542-1.938c-0.388,0.388-0.388,1.163-0.388,1.163l5.039,32.558h-0.775
	c-24.806-16.666-52.72-44.573-70.937-70.161c2.325-0.775,6.977-2.326,8.139-2.326C401.077,119.496,420.069,137.721,448.759,137.721z
	 M372.008,121.047c-20.154,26.363-44.573,51.557-71.712,70.937c0,0-0.388,0.388-1.163,0l5.039-32.945c0,0,0-0.388-0.775-0.388
	c-1.162,0-5.813,0.775-8.914,1.163c-3.488,0.388-10.465,0.775-11.24,0.775c-5.814,0-13.566-1.163-18.992-1.938
	c0-0.388,0.388-1.162,0.775-1.55c11.24-6.977,32.945-21.325,34.107-21.325c0.775,0,8.915,0.782,9.69,0.782
	c29.464,0,50.007-19.387,54.271-19.387C363.868,117.171,368.907,119.496,372.008,121.047z M395.651,82.675
	c1.162,0.775,3.876,12.791,3.876,16.279c0,3.876-1.551,7.752-2.326,11.628c-0.388,1.55-1.162,3.876-2.325,4.65
	c-1.938,1.163-4.651,1.163-6.589,1.938c-1.938,0.388-5.814,0.775-6.589,0.775c-3.876,0-4.651-0.388-9.69-1.551
	c-2.713-0.388-5.426-1.55-6.977-3.488c-1.163-1.55-1.55-5.039-1.55-5.813V91.59c0.774-2.713,0.774-6.589,2.713-8.527
	c1.162-1.938,3.876-2.713,6.201-3.101c2.325-0.775,7.364-0.775,8.14-0.775C385.187,79.187,390.612,79.574,395.651,82.675z
	 M474.728,74.536c0,5.426-3.488,14.729-3.488,18.992c0,5.814,3.876,12.403,3.876,18.216c0,15.892-14.341,22.093-25.969,22.093
	c-8.527,0-16.279-1.162-24.426-4.65c-1.163-0.388-24.806-11.24-24.806-13.566c0-1.162,2.325-6.977,3.101-10.465
	c0-0.775,0-1.938,0.388-2.713v-7.364c-0.775-3.488-2.714-10.465-2.714-11.628c0-0.775,3.488-3.488,5.427-5.039
	c7.752-6.201,15.116-11.24,23.255-14.729c12.023-5.426,14.349-5.426,24.813-5.426C464.65,58.257,474.728,60.195,474.728,74.536z
	 M316.963,58.257c2.713,0.775,5.434,1.55,8.146,2.713c4.651,1.938,9.689,4.651,14.729,7.751
	c4.651,3.101,21.317,13.954,21.317,16.667c0,0.775-1.55,3.488-1.55,5.039c-0.388,2.713-0.388,7.751-0.388,8.915
	c0,0.775-0.388,5.813,0.388,8.914c0,0.775,1.162,3.102,1.162,3.876c0,3.101-18.217,11.628-22.867,13.953
	c-10.466,4.264-19.775,6.59-29.465,6.59c-7.752,0-16.279-1.163-22.868-11.24c-1.163-1.938-1.938-5.039-1.938-5.814v-10.465
	c0.774-3.101,1.938-6.201,3.101-9.302v-7.364c-1.163-3.101-3.101-9.302-3.101-10.078v-9.69c0.388-1.55,0.774-3.875,1.938-5.039
	c5.814-7.751,11.628-6.589,18.217-6.589C307.272,57.094,312.699,57.094,316.963,58.257z"/>
</svg>
