<?xml version="1.0" encoding="utf-8"?>
<!-- Generator: Adobe Illustrator 16.0.0, SVG Export Plug-In . SVG Version: 6.00 Build 0)  -->
<!DOCTYPE svg PUBLIC "-//W3C//DTD SVG 1.1//EN" "http://www.w3.org/Graphics/SVG/1.1/DTD/svg11.dtd">
<svg version="1.1" id="Layer_1" xmlns="http://www.w3.org/2000/svg" xmlns:xlink="http://www.w3.org/1999/xlink" x="0px" y="0px"
	 width="500px" height="250px" viewBox="0 0 500 250" enable-background="new 0 0 500 250" xml:space="preserve">
<path fill-rule="evenodd" clip-rule="evenodd" fill="#FFFFFF" d="M138.129,194.971c0.848,0.849,0.848,1.696,0.848,2.121
	l-10.18,47.082c-1.697-5.514-9.756-35.206-9.756-45.386c0-0.849,0.424-2.969,1.696-3.817H138.129z M180.971,198.788
	c2.545,8.907,5.514,18.239,8.483,27.571l-0.425,1.696l-33.934-36.902c5.515-3.394,16.119-9.765,17.392-9.765
	C176.305,181.389,180.122,196.243,180.971,198.788z M102.923,191.153l-33.941,36.479c-0.424-0.425-0.424,0-0.424-1.272
	c0-0.849,1.281-5.515,2.129-7.636c4.242-13.148,6.787-28.843,14.846-37.335L102.923,191.153z M233.151,183.094
	c0,0-0.424,0.425-0.849,0.425l-46.667-14.431l11.461-19.936L233.151,183.094z M61.771,150.001
	c2.545,5.09,6.362,12.725,10.612,18.239v1.272l-47.091,14.006l-0.424-0.425l36.055-33.941
	C61.347,149.152,61.771,149.576,61.771,150.001z M248.421,122.43l0.849,0.849l-48.355,11.452c-0.424-1.696-0.424-3.817,0-19.936
	c0.849-1.697,2.97-1.272,4.666-1.272C215.336,113.522,241.635,120.733,248.421,122.43z M57.105,113.098
	c0,0.424,0.424,0.848,0.424,19.936c-0.424,0.424-1.272,0.849-1.697,0.849L8.75,123.278c2.545-1.272,40.296-10.604,46.234-10.604
	C55.833,112.674,56.257,113.098,57.105,113.098z M162.731,74.075c2.969,2.545,7.635,5.514,10.18,8.908
	c12.725,14.846,15.271,26.722,15.271,40.72c0,33.51-27.995,59.392-59.384,59.392c-21.633,0-45.81-12.309-56.415-40.729
	c-1.697-5.09-2.978-14.422-2.978-15.27v-8.059c3.826-36.479,31.821-55.142,59.392-55.142
	C139.402,63.895,151.278,66.016,162.731,74.075z M73.232,77.044c-4.25,6.362-8.068,13.149-11.885,19.936L24.868,63.471l0.424-0.424
	L73.232,77.044z M233.575,63.046l-36.902,34.357c-3.394-6.362-7.219-13.573-11.885-19.936l48.363-14.846L233.575,63.046z
	 M103.772,55.403c-5.938,2.969-13.574,6.371-19.936,11.461L68.982,19.772l0.424-0.424L103.772,55.403z M189.454,18.924
	l-14.422,47.515c0,0-1.272,0-1.697-0.424c-6.362-4.666-12.725-7.644-19.087-10.613L189.029,18.5L189.454,18.924z M140.25,51.585
	l-22.905,0.424c-0.424-0.424-0.424-1.272-0.424-1.697L128.798,3.23L140.25,51.585z"/>
<path fill-rule="evenodd" clip-rule="evenodd" fill="#FFFFFF" d="M373.711,150.657c23.317,4.881,38.229,20.876,38.229,39.584
	c0,18.712-13.827,24.947-27.926,24.947c-0.813,0-6.777-0.542-10.031-1.084c0,0-0.271,0-0.542-0.271
	c-4.338-0.542-10.031-2.982-14.099-7.591c-2.168-2.712-3.523-6.508-4.065-9.495c0-0.271-0.271-0.812-0.271-1.354v-5.695
	c0.271-1.354,0.542-2.981,0.813-4.337c2.71-14.098,18.978-17.081,18.978-27.926c0-3.253-0.542-2.439-1.897-6.777H373.711z
	 M381.032,33.794c1.084,2.982,2.711,7.32,5.151,11.121c6.777,9.488,16.809,15.454,25.214,20.063
	c4.88,2.981,10.573,5.422,15.73,8.404c5.693,3.525,8.947,9.218,10.573,14.099c0.271,1.084,1.355,2.982,1.626,4.609
	c0.543,2.168,1.627,6.778,1.627,7.592v14.912l-3.524,20.881h0.271c10.031-8.404,16.809-10.573,25.756-10.573
	c4.881,0,11.387,1.355,16.538,3.795c-15.183,8.405-25.756,25.214-27.653,37.957c-1.084,7.319-1.898,15.183-4.338,22.773
	c-2.17,6.508-5.423,13.02-10.031,19.526c-5.151,7.32-13.285,14.098-20.068,18.165c-4.339,2.711-10.032,5.151-14.099,6.777
	c-0.542,0.271-14.912,4.609-19.521,4.609H365.85c-2.712-0.271-5.693-1.355-8.405-1.626c-14.104-2.17-34.438-14.099-43.384-30.908
	c-1.356-2.711-2.982-5.694-4.066-8.682c-1.085-2.982-1.898-6.506-2.712-9.489c-0.542-2.981-1.355-8.946-1.355-9.489v-15.183
	c0.542-4.066,0.542-8.133,1.897-11.929c3.796,6.507,14.369,17.894,21.148,17.894c4.88,0,8.945-4.88,10.031-10.031
	c0.271-1.355,0.542-3.253,0.542-4.066c0-14.098-15.183-30.365-15.183-47.452c0-10.573,8.404-23.316,22.508-27.924
	c1.897-0.543,5.693-1.356,6.507-1.356h4.066c0,0,0.271-0.271,0.271,0.542c0,0.542-1.085,1.627-1.085,2.712
	c-0.542,3.525-0.812,6.235-0.812,8.947c0,10.032,4.066,23.858,18.164,23.858c8.947,0,11.117-9.488,11.117-15.183
	c0-7.32-1.899-11.116-5.966-18.707c-1.626-3.525-4.609-6.779-7.049-10.031c-1.355-1.898-4.067-8.676-4.067-11.117v-4.88
	c0.543-2.71,0.813-5.693,1.355-8.675c2.17-7.325,4.881-16.001,9.489-23.051l0.542-0.271
	C379.676,26.203,379.948,29.728,381.032,33.794z M415.735,6.953c-0.542,5.964-1.627,13.556-1.627,14.098
	c0,7.321,8.676,15.183,8.676,21.418c0,4.343-1.355,9.495-6.777,13.562c-1.898-3.796-2.712-7.863-5.423-11.387
	c-4.88-6.513-8.947-11.664-8.947-17.357c0-7.049,5.423-13.555,13.284-20.334H415.735z"/>
</svg>
